<?xml version="1.0" encoding="utf-8"?>
<!-- Generator: Adobe Illustrator 17.1.0, SVG Export Plug-In . SVG Version: 6.00 Build 0)  -->
<!DOCTYPE svg PUBLIC "-//W3C//DTD SVG 1.1//EN" "http://www.w3.org/Graphics/SVG/1.1/DTD/svg11.dtd">
<svg version="1.1"
	 id="svg2" inkscape:version="0.48.4 r9939" sodipodi:docname="code_day.svg" xmlns:inkscape="http://www.inkscape.org/namespaces/inkscape" xmlns:sodipodi="http://sodipodi.sourceforge.net/DTD/sodipodi-0.dtd" xmlns:svg="http://www.w3.org/2000/svg" xmlns:rdf="http://www.w3.org/1999/02/22-rdf-syntax-ns#" xmlns:dc="http://purl.org/dc/elements/1.1/" xmlns:cc="http://creativecommons.org/ns#"
	 xmlns="http://www.w3.org/2000/svg" xmlns:xlink="http://www.w3.org/1999/xlink" x="0px" y="0px" viewBox="0 0 1667 1245"
	 enable-background="new 0 0 1667 1245" xml:space="preserve">
<sodipodi:namedview  inkscape:window-maximized="1" inkscape:current-layer="layer1" inkscape:document-units="px" inkscape:pageopacity="0.0" inkscape:window-x="0" inkscape:window-y="0" inkscape:window-height="720" inkscape:pageshadow="2" inkscape:window-width="1364" pagecolor="#ffffff" bordercolor="#666666" id="base" borderopacity="1.0" showgrid="false" inkscape:cy="741.11007" inkscape:zoom="0.90509669" inkscape:cx="-4999.2603">
	</sodipodi:namedview>
<g id="flowRoot3765" transform="matrix(3.4107194,0,0,3.4107194,1460.5435,-288.77609)" inkscape:export-ydpi="89.994164" inkscape:export-xdpi="89.994164" inkscape:export-filename="/home/lucasmac/devaneio2_dia_do_codigo____.png">
</g>
<g id="flowRoot4699" transform="matrix(8.7101293,0,0,8.7101293,4497.6548,-1121.2303)" inkscape:export-ydpi="89.994164" inkscape:export-xdpi="89.994164" inkscape:export-filename="/home/lucasmac/devaneio2_dia_do_codigo____.png">
</g>
<path id="path3181" inkscape:export-ydpi="89.994164" inkscape:export-xdpi="89.994164" inkscape:export-filename="/home/lucasmac/devaneio2_dia_do_codigo____.png" inkscape:connector-curvature="0" fill="#FFBA31" d="
	M1456.5,692c0,80.9-65.6,146.4-146.4,146.4s-146.4-65.6-146.4-146.4c0-80.9,65.6-146.4,146.4-146.4S1456.5,611.1,1456.5,692"/>
<path id="path3183" inkscape:export-ydpi="89.994164" inkscape:export-xdpi="89.994164" inkscape:export-filename="/home/lucasmac/devaneio2_dia_do_codigo____.png" inkscape:connector-curvature="0" fill="#FFFFFF" d="
	M1401.5,758.1c11.3-13.9,19.5-30.2,23.8-47.2c0.7-2.1,1-4.3,1.4-6.4c0.4-2.1,0.8-4.3,1.2-6.4c0.3-2.1,0.3-4,0.5-6c0-2.1,0-4.1,0-6.1
	c-0.4-8.3-1.8-16.7-3.8-24.8c3.2,13,5,26.2,3.2,38.1c1.4-9,0.8-17.8-0.5-26.9c-1.4-9.1-3.5-18.3-6.5-28.3c0.7,1.4,1.4,3.3,2.2,5.4
	c0.6,2.1,1.3,4.4,2,6.5c1.2,4.4,2.3,8.4,3.1,9.9c0.6,3,1.2,6.1,1.5,9.1c0.2,1.5,0.4,3,0.6,4.5l0.3,4.5c0.1,1.5,0.1,3,0.1,4.4
	c0,1.5,0.1,3-0.1,4.4l-0.4,4.2c-0.1,1.4-0.5,2.9-0.8,4.4c-1.9,12-6.1,23.4-11.8,34c-11.1,21.3-29.3,38.2-49.7,48.7
	c1.8-1.5,3.6-2.8,5.3-4c1.7-1.2,3.4-2.2,4.9-3.4c1.5-1.1,3-2.2,4.5-3.2c1.5-1,3-1.9,4.3-2.9c2.7-2.1,5.4-3.8,7.9-5.9
	C1396.9,762.7,1399.2,760.5,1401.5,758.1"/>
<path id="path3185" inkscape:export-ydpi="89.994164" inkscape:export-xdpi="89.994164" inkscape:export-filename="/home/lucasmac/devaneio2_dia_do_codigo____.png" inkscape:connector-curvature="0" fill="#FFFFFF" d="
	M1397,596.1c2.9,3.3,5.7,7,8.1,11C1402.4,602.8,1399.4,599.2,1397,596.1"/>
<path id="path3187" inkscape:export-ydpi="89.994164" inkscape:export-xdpi="89.994164" inkscape:export-filename="/home/lucasmac/devaneio2_dia_do_codigo____.png" inkscape:connector-curvature="0" fill="#FFFFFF" d="
	M1217.6,639.2c3.1-5.1,6.7-10,10.5-14.4C1224.4,629.3,1220.7,634.1,1217.6,639.2"/>
<path id="path3189" inkscape:export-ydpi="89.994164" inkscape:export-xdpi="89.994164" inkscape:export-filename="/home/lucasmac/devaneio2_dia_do_codigo____.png" inkscape:connector-curvature="0" fill="#FFFFFF" d="
	M1352,798.4c-0.7,0.3-1.4,0.6-2.1,0.9l-2.2,0.7c-1.5,0.4-2.9,0.9-4.4,1.3l-4.2,1l-4.3,0.5c-2.9,0.3-5.8,0.9-8.7,0.9
	c-2.9,0-5.8,0.1-8.7,0.1c-1.5,0.1-2.9-0.1-4.4-0.2l-4.4-0.4l-4.4-0.4c-1.5-0.2-2.9-0.5-4.4-0.8c-2.9-0.6-5.8-1-8.7-1.7
	c-2.8-0.8-5.7-1.6-8.6-2.4c-1.4-0.4-2.8-0.9-4.2-1.4l-4.2-1.6c12,4.7,25.4,7.7,38.7,8.1C1326.2,803.3,1339.5,801.6,1352,798.4"/>
<path id="path3191" inkscape:export-ydpi="89.994164" inkscape:export-xdpi="89.994164" inkscape:export-filename="/home/lucasmac/devaneio2_dia_do_codigo____.png" inkscape:connector-curvature="0" fill="#FFFFFF" d="
	M1376,790.3l3.9-2.3c1.3-0.8,2.6-1.5,3.8-2.5l7.3-5.3c4.6-3.9,9.3-7.7,13.3-12.1c4.4-4.1,7.9-9,11.7-13.5c3.3-4.9,6.9-9.6,9.5-14.7
	c-2.6,5.2-6.2,9.9-9.4,14.8c-3.8,4.5-7.3,9.4-11.6,13.5c-4,4.5-8.8,8.2-13.4,12.1c-2.5,1.8-4.9,3.5-7.4,5.3
	c-1.2,0.9-2.5,1.7-3.8,2.5L1376,790.3"/>
<path id="path3193" inkscape:export-ydpi="89.994164" inkscape:export-xdpi="89.994164" inkscape:export-filename="/home/lucasmac/devaneio2_dia_do_codigo____.png" inkscape:connector-curvature="0" fill="#FFFFFF" d="
	M1382.9,617.2c0.1-0.2,0.6,0.1,1.2,0.7c0.6,0.6,1.1,1.2,1.5,1.7c6.4,9.7,11,21,12.9,32.4c-0.6-2.8-1.8-5.3-2.6-8.1
	c-0.9-3.1-1.6-5.6-2.5-7.7c-0.7-2.2-1.5-4-2.3-5.9C1389.4,626.5,1387.4,622.6,1382.9,617.2"/>
<path id="path3195" inkscape:export-ydpi="89.994164" inkscape:export-xdpi="89.994164" inkscape:export-filename="/home/lucasmac/devaneio2_dia_do_codigo____.png" inkscape:connector-curvature="0" fill="#FFFFFF" d="
	M1214.2,644.9l-0.2,0.6c-0.9,1.8-1.9,3.6-2.7,5.4c-0.1,0.2-0.2,0.4-0.4,0.6C1211.8,649.3,1213.1,647.1,1214.2,644.9"/>
<path id="path3197" inkscape:export-ydpi="89.994164" inkscape:export-xdpi="89.994164" inkscape:export-filename="/home/lucasmac/devaneio2_dia_do_codigo____.png" inkscape:connector-curvature="0" fill="#FFFFFF" d="
	M1373.7,606.2c0.1-0.4,0.3-0.9-0.2-1.8c4.4,4.6,8.4,9.5,12.1,15c-0.5-0.6-1-1.1-1.5-1.6C1381.3,614.4,1377.3,609.2,1373.7,606.2"/>
<path id="path3199" inkscape:export-ydpi="89.994164" inkscape:export-xdpi="89.994164" inkscape:export-filename="/home/lucasmac/devaneio2_dia_do_codigo____.png" inkscape:connector-curvature="0" fill="#FFFFFF" d="
	M1239.4,594.3c-1.7,1-3.1,2.2-4.4,3.2c-1.3,1.2-2.5,2.3-3.2,3c-9.5,6.5-17.1,13.9-24.7,23.8c-1,1.7-3.2,5.1-4.9,8.6
	c-1.5,1.8-3,3.7-4.4,5.9c6.6-12.1,14.8-23.1,25.6-33.1c1.3-1.2,2.7-2.5,4.2-3.6c1.4-1.2,3-2.4,4.6-3.5l2.4-1.7l2.2-1.3l4.4-2.6
	c1.5-0.9,2.9-1.8,4.4-2.6l4.7-2.4c3.1-1.6,6.2-3.2,9.6-4.4c-3.6,1.4-6.9,3.2-10.4,5c-1.7,0.9-3.5,1.7-5.1,2.7
	C1242.8,592.3,1241.1,593.3,1239.4,594.3"/>
<path id="path3201" inkscape:export-ydpi="89.994164" inkscape:export-xdpi="89.994164" inkscape:export-filename="/home/lucasmac/devaneio2_dia_do_codigo____.png" inkscape:connector-curvature="0" fill="#FFFFFF" d="
	M1308.1,711.8c9-1.4,17.8-6.4,23.7-14.1c5.9-7.6,8.7-17.9,7.3-27.6c-1.4-9.8-7.1-18.8-15-24.3c-3.9-2.7-8.4-4.6-13-5.5
	c-4.6-0.9-9.2-0.7-13.3-0.1c4.8-0.3,10.4,0,15.5,1.8c5.1,1.8,9.9,4.8,13.7,8.7c7.7,7.8,10.9,19.1,9.5,28.4
	c-0.6,4.7-2.3,8.9-4.4,12.4c-2.1,3.4-4.7,6.1-7.1,8c-4.9,3.8-9.2,4.6-10.7,4.3c-1.6-0.5,0.6-1.5,4.1-4c3.5-2.5,8.6-7.1,11.3-14.2
	c2.8-7,2.8-16.3-1.1-23.8c-1.9-3.8-4.7-7-7.7-9.5c-3.1-2.5-6.5-4.1-9.7-5.1c3.2,1.5,3.2,1.5,6.1,3.5c-2.8-2.1-6.1-3.6-9.2-3.8
	c1.7,0.5,3.7,1.3,5.7,2.3c2,1.1,4,2.4,5.7,3.9c3.4,3,5.5,6.7,5.9,8.5c0,0-0.2-0.3-0.6-0.7c-0.4-0.4-0.9-0.9-1.4-1.4
	c-0.5-0.5-1.1-0.9-1.5-1.2c-0.4-0.3-0.7-0.5-0.7-0.5c2.2,3.3,4.3,7.5,4.9,12.3c0.7,4.8-0.2,10.1-2.4,14.5c-2.4,4.3-6,7.9-10,9.6
	c-3.9,1.8-7.9,1.9-10.9,1.3c3.7,0.5,7.7,0,11.4-1.8c3.7-1.8,7-4.9,9.2-8.9c1-2,1.9-4.2,2.3-6.5c0.4-2.3,0.5-4.8,0.2-7.2
	c-0.7-4.8-2.9-9.6-6.7-13.2c-3.6-3.7-8.7-6.1-14.1-6.8c-2.6-0.3-5.8-0.1-8.8,0.2c-3,0.5-6.1,1.1-8.9,2.2c-2.9,1-5.5,2.5-7.9,4.1
	c-1.2,0.9-2.3,1.9-3.5,3l-3.5,3.4c-4.2,4.7-7.2,10.4-8.9,16.5c-3.4,12.4-1.1,26.5,5.2,38.4c3.1,5.9,7.3,11.5,12.1,16
	c4.8,4.5,10.4,8,16.4,10c12.2,4,26,1.9,38.5-3.2c6.2-2.5,12.8-5.8,17.1-9.4l3.5-3.1c1.1-1.2,2.1-2.4,3.2-3.6
	c0.5-0.6,1.1-1.2,1.6-1.8l1.4-2l2.9-3.9l2.7-4.7c0.4-0.8,0.9-1.6,1.3-2.4l1.1-2.5l2.2-4.9l1.6-5.1l0.8-2.5c0.2-0.9,0.3-1.7,0.5-2.6
	l1-5.1c0.5-3.5,0.9-7.2,1-10.7c0.7-14.2-2.4-27.3-9.1-38c-3.4-5.4-7.6-10.2-12.3-14.7c-4.8-4.3-9.8-8.1-15.1-11.1
	c-5.4-2.8-10.9-5-16.4-6.4c-1.4-0.3-2.8-0.5-4.2-0.8l-2.1-0.4l-2.1-0.1l-4.2-0.3l-4.2,0.1c-2.1-0.2-5,0.3-8.3,0.4
	c-3.3,0.5-7.2,0.9-11.2,2c-8,1.9-16.9,5.1-24.1,8.9c-3.2,1.6-6.2,3.6-9.2,5.6c-3.4,2.1-5.2,3.5-7.7,5.7c-4.7,4.2-9.1,9.6-13,15.2
	c-7.7,11.3-13.2,24.3-13.9,35.9l-0.2,2.5l-0.2,2.8l-0.4,5.6c-0.1,0.9-0.2,1.9-0.2,2.8l0.1,2.7l0.1,5.3c-0.1,1.8,0.3,3.5,0.5,5.2
	l0.6,5.2c0.5,3.4,1.5,6.7,2.1,10.1c3.7,13.2,10.3,25.4,19.5,35.7c9.2,10.3,21,18.7,34.7,24.1c13.6,5.4,29.2,8.6,44,8
	c1.5-0.1,3.1,0,4.6,0c1.5-0.1,3.1-0.2,4.5-0.2c2.8,0,5.1,0.1,6.2,0.5c1,0.2,0.8,1-1.6,1.7c-1.2,0.4-3,0.9-5.4,1.4
	c-1.2,0.2-2.6,0.7-4.1,0.7c-1.6,0.1-3.3,0.2-5.2,0.4c-1.6,0.1-3.2,0.3-4.8,0.3l-4.8-0.2l-4.9-0.2c-1.6,0-3.3-0.4-4.9-0.6
	c-6.6-0.8-13.1-2.3-19.5-4.2c-12.7-3.9-24.7-10.2-34.7-18.7c1.5,0.6,4.7,2.7,8.1,5.2c1.7,1.2,3.7,2.2,5.5,3.2c1.8,1,3.4,1.9,4.8,2.4
	c-2.1-1.2-4-2.6-6-3.8c-1-0.6-1.9-1.2-2.9-1.8c-0.9-0.7-1.8-1.4-2.6-2.1c-1.7-1.4-3.5-2.7-5.2-4.1c-1.6-1.5-3.1-3-4.7-4.5
	c-0.8-0.8-1.6-1.4-2.3-2.2l-2.1-2.4c-1.4-1.6-2.9-3.2-4.2-4.9c-2.5-3.6-5.3-7-7.4-11.1c6.2,10.6,14.5,19.9,24.5,27.3
	c-3.3-2.1-6-4.9-9-7.5c-1.6-1.2-2.7-2.9-4.1-4.3c-1.3-1.5-2.8-2.9-3.9-4.5c-2.3-3.3-4.9-6.4-6.8-10c-1-1.8-2.1-3.5-3-5.3
	c-0.8-1.9-1.7-3.8-2.5-5.7c-0.9-1.8-1.6-3.8-2.2-5.8c-0.6-2-1.4-3.9-1.9-6l-1.4-6.2c-0.2-1-0.5-2.1-0.7-3.1l-0.4-3.2l-0.8-6.4
	c-0.1-2.1-0.1-4.3-0.2-6.5c-0.3-4.2,0.2-8.8,0.5-13.3c0.5-6.6,2.3-11.3,4.8-17c2.7-5.8,5.6-12,9.4-19.9
	c-6.2,9.2-11.4,19.5-13.4,29.6c-0.5,2.6-0.8,5.3-1.2,8.4c-0.3,3-0.8,6-0.9,8.9l-0.1,8.7c0.1,2.9,0.5,5.7,0.7,8.6
	c1.3,11.4,4.6,22.6,10,32.7c5.4,10.1,12.6,19.4,21.6,26.7c-0.1,0-0.2-0.1-0.2-0.1c8.1,6.5,16.6,11.7,25.6,15.7
	c2.2,1,4.6,1.8,6.9,2.7l3.5,1.3c1.2,0.4,2.4,0.7,3.6,1c2.4,0.7,4.8,1.3,7.3,2c2.5,0.4,5,0.9,7.5,1.3l-4.8-0.7
	c-1.6-0.2-3.2-0.5-4.7-0.9c-3-0.8-6-1.5-8.6-2.4c3.6,1.1,7.1,2.1,10.7,3.2c3.7,0.7,7.4,1.5,11,2.2c3.7,0.4,7.3,0.7,10.9,1.1l11-0.1
	c14.6-0.9,29-5.2,42-12.1c-2.2,1.3-4.6,2.4-6.9,3.7c-1.2,0.6-2.3,1.3-3.5,1.8l-3.7,1.4l-3.7,1.5c-1.2,0.5-2.5,1-3.8,1.3
	c-2.6,0.7-5.1,1.4-7.7,2.1c-1.3,0.4-2.6,0.6-3.9,0.8l-4,0.6l-4,0.6c-1.3,0.1-2.7,0.1-4.1,0.2c-2.7,0.1-5.4,0.3-8.2,0.3
	c-2.7-0.2-5.5-0.3-8.2-0.5c-22.2-2-44.2-10.2-61.6-24.2c-17.1-14.2-29.5-34.1-33.6-55.9c-2.2-10.9-2.9-21.8-1.7-33.1
	c0.4-5.8,0.9-10.8,2.3-15.9c1.3-5.1,3.1-10.1,5.4-14.9c-3,5.2-5.6,11.3-7.1,17.6c-0.7,3.1-1.2,6.4-1.4,9.9
	c-0.3,3.5-0.5,7.1-0.8,10.6c-0.4,13.9,2,27,4.3,37.4l-1.1-3.5c-0.2-0.6-0.4-1.2-0.6-1.8l-0.4-1.8l-1.6-7.3c-0.5-2.4-0.6-5-0.9-7.4
	c-0.3-2.5-0.6-5-0.5-7.5l-0.1-7.5c0.1-2.5,0.4-5.1,0.6-7.7c0.4-5.2,0.9-10.1,2.1-14.7c1.2-4.7,3-9.4,5-13.9c2.1-4.5,4.6-9,7.3-13.2
	c2.8-4.2,5.8-8.3,9.1-12.2c3.3-3.8,6.9-7.4,10.7-10.5c-2.1,2-4.1,4.1-6,6.3c2.3-2.1,4.6-4.2,7-6l1.8-1.4l1.8-1.2
	c1.1-0.8,2.7-1.7,4.1-2.5c5.6-3.4,11.4-6.5,17.3-9.3c11.8-5.4,24.4-8.7,36.6-8.8c2.2-0.1,4.3,0.3,6.5,0.4c-2.1-0.1-4.3-0.5-6.5-0.4
	c-11.1,0-22.3,2.4-33,6.5c-5.4,2-10.5,4.6-15.6,7.2c-2.5,1.5-5,2.9-7.5,4.4c-1.3,0.7-2.3,1.5-3.4,2.2c-1.1,0.7-2.1,1.6-3.2,2.4
	c1.9-1.7,3.7-3.2,5.9-4.7c2.3-1.5,4.7-2.9,7.2-4.5c5-2.8,10.5-5.6,16.7-7.9c-7,1.7-16.4,6.4-25.5,11.8c-5.4,3.6-10.3,8.2-14.8,13.3
	c-4.5,5.1-8.5,10.6-12,16.4c2.6-4.5,5.6-8.9,8.8-12.9c3.2-4.1,6.6-8,10.2-11.4c3.6-3.5,7.4-6.3,11.7-9c2.1-1.3,4.1-2.9,6.3-4
	c2.1-1.2,4.3-2.4,6.4-3.6c-3.2,1.6-6.6,3-9.8,4.9c-3.1,1.9-6.5,3.6-9.4,5.6c-5.9,4-11.2,9.1-15.9,14.7c-9.4,11.2-17,24.4-21.1,38.2
	c4.2-15.4,12.5-29.7,23-41.8c4.6-4.9,9.6-9.5,15.1-13.1l8.8-5.2c3-1.6,6.1-3.1,9.1-4.6c3.1-1.4,6.3-2.6,9.4-3.9
	c3.2-1.1,6.5-2.1,9.7-3.1c6.6-1.5,13.3-2.9,20-3l-3.1,0.2l6.1-0.3c2.6,0,5.3,0.3,7.9,0.4c2.6,0.3,5.2,0.8,7.8,1.2
	c2.5,0.7,5.1,1.3,7.6,2.1l3.7,1.4l1.9,0.7l1.8,0.8c8.7,3.8,16.8,8.8,24,14.9c1.2,1.1,2.4,2.2,3.4,3.3c-1.1-1-2.1-1.6-2.2-1.5
	c-0.1,0.1,0.6,0.9,2.5,3.1c8.1,9.4,15,20.3,18.2,33.2c1.6,6.4,2.2,13.2,2,20c-0.1,3.4-0.5,6.9-1,10.4c-0.3,1.7-0.6,3.5-0.9,5.2
	c-0.5,1.7-0.9,3.4-1.4,5c-0.5,1.8-1,3.7-1.8,5.7c-0.7,2-1.5,4.1-2.3,6.3c-1,2.2-2,4.4-3.1,6.7c-1.1,2.3-2.5,4.5-3.8,6.9
	c-1.8,2.3-2.7,3.5-3.2,4.8c-0.7,0.9-1.3,1.9-2,2.9l-2.3,2.6c-3.7,4.4-8.1,7.8-12.6,10.8c4.6-2.8,9-6.3,12.6-10.8l2.1-2.4
	c0.7-0.8,1.3-1.7,1.9-2.6c-0.3,0.7-0.6,1.4-1.1,2.3c-0.5,0.8-1.3,1.7-2.3,2.9c6.6-7.3,12-16,15.9-25.4l2.6-7.2l1.8-7.4
	c1-5,1.7-10.2,1.9-15.3c0.6-10.3-0.8-20.7-4.3-30.4c-3.7-9.7-9.6-18.4-16.9-25.9c1,0.8,2.1,1.8,3.1,2.8c1,1,1.9,1.9,2.4,2.4
	c-2.8-3-5.8-5.9-9-8.5c-2.4-2.4-5.1-4.4-7.7-6.5c-2.8-1.9-5.5-3.9-8.5-5.4c-2.9-1.8-6-3-9-4.4l-4.7-1.7c-1.6-0.6-3.2-1-4.8-1.4
	c1,0.2,1.9,0.4,2.9,0.6c0.9,0.3,1.8,0.5,2.7,0.8c1.8,0.5,3.5,0.8,5.1,1.4c-8.8-3.9-18.4-6-28.1-6.2c-9.7-0.2-19.4,1.4-28.7,4.2
	c-9.4,2.7-18.2,7.2-26.7,12c-4.2,2.6-8.5,5-12.1,8.1c-3.8,3-7.2,6.5-10.4,10.1c-6.2,6.7-11.5,14.2-15.9,22.2
	c-4.4,8-7.8,16.5-9.6,25.4c-2.9,17.9-3.4,36.7,1.6,54.3c-2-9.6-3.3-19.6-2.9-29.8l0.1-3.8c0-1.3,0-2.5,0.2-3.8
	c0.3-2.6,0.6-5.1,0.8-7.7c0.2-2.6,0.6-5.1,1-7.6c0.6-2.5,1-5,1.8-7.4c-1.8,6.5-2.3,13.3-2.8,20.3c-0.1,1.7-0.4,3.5-0.3,5.2l0.1,5.1
	l0.1,5.1c0.1,1.7,0.4,3.4,0.5,5.1c1.4,13.6,5.3,26.9,11.7,38.9c12.7,24.2,35.5,42.4,61.5,51.4c-10-1.7-22.6-7.5-28.9-9.6
	c-0.1,0.4,3.8,3.1,6.6,5c1.3,1,2.5,1.6,2.7,1.8c0.2,0.1-0.7,0-3.1-1.3c-17.8-8.7-30.3-21.1-38.7-32.5c-1-1.4-2.2-2.7-3.1-4.2
	c-0.9-1.4-1.8-2.8-2.6-4.2c-0.9-1.3-1.7-2.6-2.5-3.9c-0.8-1.3-1.4-2.6-2.1-3.8c-1.4-2.5-2.7-4.8-4.1-6.9c-1.1-2.2-2.3-4.2-3.5-6
	c-0.5-0.7-0.3,1.7,0.3,5.4c0.2,1.9,0.9,4,1.5,6.3c0.7,2.3,1.3,4.7,2,7c1.7,4.5,3.4,8.7,4,11c0.3,1.2,0.5,1.7,0.2,1.7
	c-0.3,0-1-0.7-2-2.4c-0.9-1.4-1.8-3-2.8-4.6c-1-1.7-2.2-3.4-3.1-5.5c-1-2-2-4.2-3-6.4c-0.5-1.1-1.1-2.3-1.6-3.5
	c-0.4-1.2-0.9-2.5-1.3-3.7c-0.9-2.6-1.8-5.2-2.7-7.9c-0.6-2.8-1.3-5.7-2-8.6c-0.3-1.5-0.7-2.9-0.9-4.4c-0.2-1.5-0.4-3-0.6-4.6
	c-0.3-3.1-0.9-6.2-1-9.4c0-3.6,0-7.3,0-11.1c0.2-3.7,0.6-7.3,0.9-11.1c0.2-1,0-2.4,0-4.6c0.2-1.8,0.4-3.5,0.7-5.3
	c0.4-1.8,0.7-3.6,1.1-5.4c0.9-3.5,1.8-6.9,3-10.1c2.3-6.4,4.9-12.3,7.8-17.4c5.6-10.4,12-18.4,16.9-23.9c3.6-4,7.6-7.8,12-11.4
	c1.3-0.8,2.4-1.6,3.5-2.3c1.2-0.6,2.2-1.2,3.2-1.6l1.1-0.9l1-0.7l2-1.4l4-2.8c12-6.8,24.8-12.4,38.6-15.6l5.8-1c2-0.2,4-0.4,5.9-0.5
	c3.9-0.5,7.9-0.3,11.9-0.3c-0.2-0.3-1.5-0.6,0.1-1c9.1,0.1,18.2,1.1,27,3.9c8.7,2.7,17,6.5,24.5,11.4c5.8,4.4,10.7,8.9,14.2,13.5
	c3.9,2.7,8.4,7,13.1,12.8c4.6,5.8,9.1,13.2,12.2,21.7c3.1,8.5,4.8,17.8,5.2,26.6c0.4,8.9-0.4,17.2-1.5,24.5l0.1,0
	c-0.6,3.7-1.7,7.7-2.6,11.5c-1.2,3.8-2.5,7.4-3.9,11.1c-1.7,3.5-3.2,7.1-5.2,10.5c-2.1,3.3-3.9,6.8-6.4,9.9
	c-1.8,1.9-3.4,3.8-5.3,5.4c-2.4,3.2-5.1,6.4-6.6,7.9c-1.3,1.1-2.6,2.1-3.8,3.2c-1.2,1-2.9,1.9-4.3,2.8c-0.7,0.4-1.4,0.9-2.2,1.3
	c-0.7,0.4-1.5,0.9-2,1.1c-1.2,0.6-2.5,1.1-3.7,1.7c-2.4,1.1-4.9,2-7.3,3c-2.5,0.8-4.9,1.7-7.5,2.4c-1.7,0.8-4.9,2.8-9,3.7
	c-8.2,1.8-16.6,2.6-25.1,1.8c-9.9-1-19.9-4.7-28.2-10.5c-7.1-4.9-12.8-11-17.5-17.3c-4.7-6.5-8.3-13.6-10.9-21.1
	c-2.6-7.5-4-15.5-4.1-23.5c-0.1-8,1.3-16.2,4.4-23.8c0.6-0.9,1.1-0.9,1.6-1c0.8-2.4,1.9-5.2,3.5-7.7c0.8-1.3,1.5-2.5,2.3-3.7
	c0.8-1.1,1.6-2.1,2.2-3.1c-0.4,0.8-0.6,1.3-0.4,1.3c1.1-1.5,2-2.9,3-4c1-1.1,1.9-2,2.7-2.9c1.6-1.7,3.5-3.1,5.1-4.4
	c1.7-1.3,3.7-2.3,5.7-3.5c2.2-1,4.6-2.3,7.7-3.3c1.4-0.6,2.7-1.2,4-1.6c1.3-0.5,2.7-1.1,4.1-1.4c1.4-0.2,2.8-0.5,4.3-0.7
	c1.9,0.1,3.7-0.1,5.5,0.1l2.8,0.1l2.9,0.3c3.9,0.5,7.8,1.4,11.5,2.9c7.5,2.9,14.3,8.1,19.2,15.3c4.6,7.4,6.7,16.2,5.9,24.7
	c-0.7,8.5-4.4,16.6-10,22.8c-4.5,4.9-8.7,7-12.4,8.4C1315.9,710.9,1312.4,711.5,1308.1,711.8"/>
<path id="path3203" inkscape:export-ydpi="89.994164" inkscape:export-xdpi="89.994164" inkscape:export-filename="/home/lucasmac/devaneio2_dia_do_codigo____.png" inkscape:connector-curvature="0" fill="#FFFFFF" d="
	M1399.1,656.1c0.9,7.5,0.8,14.9,0.1,22c-0.4,3.5-0.9,7.1-1.5,10.5c-0.3,1.7-0.7,3.5-1.2,5.3l-1.4,5.3c0.4-1.9,0.9-3.8,1.3-5.7
	c0.2-0.9,0.4-1.9,0.6-2.8c0.1-0.9,0.3-1.8,0.4-2.7c0.6-3.5,0.9-7.1,1.2-10.6C1399.1,670.4,1399.2,663.4,1399.1,656.1"/>
<path id="path3205" inkscape:export-ydpi="89.994164" inkscape:export-xdpi="89.994164" inkscape:export-filename="/home/lucasmac/devaneio2_dia_do_codigo____.png" inkscape:connector-curvature="0" fill="#FFFFFF" d="
	M1209.8,772.1c0.7,1.3,1.4,2.7,2.3,4c0.9,1.3,1.9,2.6,2.8,3.9c2,2.6,4,5.5,6.7,8c-0.9-0.8-1.8-1.6-2.6-2.4l-2.4-2.7l-4.7-5.4
	c-3-3.7-5.7-7.7-8.5-11.6l-3.6-6.2c-1.1-2.1-2.5-4.1-3.4-6.3l-2.9-6.6l-1.4-3.3l-1.1-3.4c-1.4-4.5-3.1-9.1-3.9-13.7l-1.5-7
	c-0.4-2.3-0.6-4.7-0.9-7.1l-0.7-7.1l-0.1-7.1c0-2.4-0.1-4.8,0-7.1l0.6-6.8l0.1,0c-0.2,3.6-0.7,7.4-0.5,11.6c0,2.1,0,4.2,0.1,6.3
	c0,1.1,0,2.1,0,3.2c0.1,1.1,0.2,2.2,0.3,3.2c0.7,8.7,2.2,17.6,4.7,26C1194.2,751.3,1202.7,765.4,1209.8,772.1"/>
<path id="path3207" inkscape:export-ydpi="89.994164" inkscape:export-xdpi="89.994164" inkscape:export-filename="/home/lucasmac/devaneio2_dia_do_codigo____.png" inkscape:connector-curvature="0" fill="#FFFFFF" d="
	M1384,617.8c0.4,0.4,1,0.9,1.5,1.6c0,0,0,0.1,0.1,0.1C1385.1,619,1384.6,618.5,1384,617.8"/>
<path id="path3209" inkscape:export-ydpi="89.994164" inkscape:export-xdpi="89.994164" inkscape:export-filename="/home/lucasmac/devaneio2_dia_do_codigo____.png" inkscape:connector-curvature="0" fill="#FFFFFF" d="
	M1272.2,799.4c1,0.4,2,0.7,3,1.1l-5.7-2c-1.9-0.6-3.7-1.6-5.5-2.4l-5.5-2.5c-1.8-0.9-3.5-2-5.3-3c1.4,0.8,2.9,1.6,4.4,2.4
	c1.5,0.8,3.1,1.4,4.7,2.2C1265.4,796.7,1268.6,798.3,1272.2,799.4"/>
<path id="path3211" inkscape:export-ydpi="89.994164" inkscape:export-xdpi="89.994164" inkscape:export-filename="/home/lucasmac/devaneio2_dia_do_codigo____.png" inkscape:connector-curvature="0" fill="#FFFFFF" d="
	M1357.1,802.5c15.6-5.6,29.9-14.5,42-25.7l3-2.6l2.8-2.8c1.8-1.9,3.7-3.8,5.5-5.7c1.7-2,3.3-4.1,5-6.1l2.5-3c0.8-1,1.5-2.1,2.2-3.2
	c1.5-2.2,2.9-4.3,4.4-6.4c1.4-2.2,2.5-4.5,3.8-6.7c2.7-4.4,4.6-9.1,6.7-13.7c-6.6,17.5-17,33.6-30.3,46.8
	C1391.4,786.5,1374.9,796.5,1357.1,802.5"/>
<path id="path3213" inkscape:export-ydpi="89.994164" inkscape:export-xdpi="89.994164" inkscape:export-filename="/home/lucasmac/devaneio2_dia_do_codigo____.png" inkscape:connector-curvature="0" fill="#FFFFFF" d="
	M1266.6,815.2c7,3.2,14.4,5.5,21.9,7.7c-7.6-1.9-15.1-3.9-22.3-6.8C1267.6,816.4,1266.6,815.6,1266.6,815.2"/>
<path id="path3215" inkscape:export-ydpi="89.994164" inkscape:export-xdpi="89.994164" inkscape:export-filename="/home/lucasmac/devaneio2_dia_do_codigo____.png" inkscape:connector-curvature="0" fill="#FFFFFF" d="
	M1218.9,759.4c1,1.3,2,2.7,2.9,4l-4.1-4.9c-1.4-1.6-2.4-3.5-3.7-5.3C1215.1,754.4,1217,757.6,1218.9,759.4"/>
<path id="path3217" inkscape:export-ydpi="89.994164" inkscape:export-xdpi="89.994164" inkscape:export-filename="/home/lucasmac/devaneio2_dia_do_codigo____.png" inkscape:connector-curvature="0" fill="#FFFFFF" d="
	M1348.4,823.6c-5.7,1.5-11.6,1.8-17.3,2.6c3.4-0.6,6.8-1.3,10.1-2.1C1343.1,824.3,1345.6,824,1348.4,823.6"/>
<path id="path3219" inkscape:export-ydpi="89.994164" inkscape:export-xdpi="89.994164" inkscape:export-filename="/home/lucasmac/devaneio2_dia_do_codigo____.png" inkscape:connector-curvature="0" fill="#FFFFFF" d="
	M1424.1,777.1c2.4-3.1,4.9-6.2,7.2-9.2c2.4-3,4.2-6.3,6.3-9.4c-2.4,3.9-4.7,7.9-7.7,11.6c-2.8,3.7-5.5,7.5-8.8,10.8
	C1422.4,779.1,1423.4,777.7,1424.1,777.1"/>
<path id="path4539" inkscape:export-ydpi="89.994164" inkscape:export-xdpi="89.994164" inkscape:export-filename="/home/lucasmac/devaneio2_dia_do_codigo____.png" inkscape:connector-curvature="0" fill="#FFBA31" d="
	M1227.5,518.3c4.9,8.2,2.1,18.8-6.1,23.7l0,0c-8.2,4.9-18.8,2.1-23.7-6.1l-10.8-23c-4.2-7.1-1.8-16.2,5.3-20.4l0,0
	c7.1-4.2,16.2-1.8,20.4,5.3L1227.5,518.3"/>
<path id="path4541" inkscape:export-ydpi="89.994164" inkscape:export-xdpi="89.994164" inkscape:export-filename="/home/lucasmac/devaneio2_dia_do_codigo____.png" inkscape:connector-curvature="0" fill="#FFBA31" d="
	M1433.2,871c4.2,7.1,1.8,16.2-5.3,20.4l0,0c-7.1,4.2-16.2,1.8-20.4-5.3l-14.9-20.6c-4.9-8.2-2.1-18.8,6.1-23.7l0,0
	c8.2-4.9,18.8-2.1,23.7,6.1L1433.2,871"/>
<path id="path4543" inkscape:export-ydpi="89.994164" inkscape:export-xdpi="89.994164" inkscape:export-filename="/home/lucasmac/devaneio2_dia_do_codigo____.png" inkscape:connector-curvature="0" fill="#FFBA31" d="
	M1483.7,609.4c-8.2,4.9-18.8,2.1-23.7-6.1l0,0c-4.9-8.2-2.1-18.8,6.1-23.7l23-10.8c7.1-4.2,16.2-1.8,20.4,5.3l0,0
	c4.2,7.1,1.8,16.2-5.3,20.4L1483.7,609.4"/>
<path id="path4547" inkscape:export-ydpi="89.994164" inkscape:export-xdpi="89.994164" inkscape:export-filename="/home/lucasmac/devaneio2_dia_do_codigo____.png" inkscape:connector-curvature="0" fill="#FFBA31" d="
	M1374.5,510.8c-2.4,9.3-11.8,14.8-21.1,12.5l0,0c-9.3-2.4-14.8-11.8-12.5-21.1l8.6-23.9c2.1-8,10.2-12.8,18.2-10.7l0,0
	c8,2,12.8,10.2,10.7,18.2L1374.5,510.8"/>
<path id="path4549" inkscape:export-ydpi="89.994164" inkscape:export-xdpi="89.994164" inkscape:export-filename="/home/lucasmac/devaneio2_dia_do_codigo____.png" inkscape:connector-curvature="0" fill="#FFBA31" d="
	M1270.5,905.7c-2.1,8-10.2,12.8-18.2,10.7l0,0c-8-2.1-12.8-10.2-10.7-18.2l4-25.1c2.4-9.3,11.8-14.8,21.1-12.5l0,0
	c9.3,2.4,14.8,11.8,12.5,21.1L1270.5,905.7"/>
<path id="path4551" inkscape:export-ydpi="89.994164" inkscape:export-xdpi="89.994164" inkscape:export-filename="/home/lucasmac/devaneio2_dia_do_codigo____.png" inkscape:connector-curvature="0" fill="#FFBA31" d="
	M1491.2,756.4c-9.3-2.4-14.8-11.8-12.5-21.1l0,0c2.4-9.3,11.8-14.8,21.1-12.5l23.9,8.6c8,2,12.8,10.2,10.7,18.2l0,0
	c-2.1,8-10.2,12.8-18.2,10.7L1491.2,756.4"/>
<g id="flowRoot5809" transform="matrix(1.3428309,0,0,1.3428309,572.58714,724.50729)" inkscape:export-ydpi="89.994164" inkscape:export-xdpi="89.994164" inkscape:export-filename="/home/lucasmac/devaneio2_dia_do_codigo____.png">
</g>
<g id="flowRoot5676" transform="matrix(3.4107194,0,0,3.4107194,-2633.2065,554.97391)" inkscape:export-ydpi="89.994164" inkscape:export-xdpi="89.994164" inkscape:export-filename="/home/lucasmac/devaneio2_dia_do_codigo____2.png">
</g>
<g id="flowRoot5684" transform="matrix(8.7101293,0,0,8.7101293,403.9048,-277.4803)" inkscape:export-ydpi="89.994164" inkscape:export-xdpi="89.994164" inkscape:export-filename="/home/lucasmac/devaneio2_dia_do_codigo____2.png">
</g>
<g id="flowRoot5744" transform="matrix(1.5259334,0,0,1.5259334,-3709.3918,1420.037)" inkscape:export-ydpi="89.994164" inkscape:export-xdpi="89.994164" inkscape:export-filename="/home/lucasmac/devaneio2_dia_do_codigo____2.png">
</g>
<rect x="1840" y="0" fill="#212121" width="1667" height="1245"/>
<g id="flowRoot3184" transform="matrix(0.92653957,0,0,0.92653957,-4342.7594,-172.10549)" inkscape:export-ydpi="90" inkscape:export-xdpi="90" inkscape:export-filename="/home/lucasmac/dia_do_codigo_banner.png">
</g>
<g id="flowRoot3192" transform="matrix(2.3661517,0,0,2.3661517,-3517.7123,-402.66541)" inkscape:export-ydpi="90" inkscape:export-xdpi="90" inkscape:export-filename="/home/lucasmac/dia_do_codigo_banner.png">
</g>
<g id="flowRoot3252" transform="matrix(0.41452771,0,0,0.41452771,-4635.1106,57.369109)" inkscape:export-ydpi="90" inkscape:export-xdpi="90" inkscape:export-filename="/home/lucasmac/dia_do_codigo_banner.png">
</g>
<g id="flowRoot20215" transform="matrix(1.3839267,0,0,1.3839267,-4631.8033,-226.43079)" inkscape:export-ydpi="90" inkscape:export-xdpi="90" inkscape:export-filename="/home/lucasmac/dia_do_codigo_banner.png">
</g>
<g id="flowRoot22517" transform="matrix(0.64160138,0,0,0.64160138,-5054.0687,-24.726174)" inkscape:export-ydpi="90" inkscape:export-xdpi="90" inkscape:export-filename="/home/lucasmac/dia_do_codigo_banner.png">
</g>
<g id="flowRoot16273" transform="matrix(0.33522868,0,0,0.33522868,-4269.1262,151.97648)" inkscape:export-ydpi="90" inkscape:export-xdpi="90" inkscape:export-filename="/home/lucasmac/dia_do_codigo_banner.png">
</g>
<g id="flowRoot16846" transform="matrix(0.27970805,0,0,0.27970805,-4525.6052,175.72589)" inkscape:export-ydpi="90" inkscape:export-xdpi="90" inkscape:export-filename="/home/lucasmac/dia_do_codigo_banner.png">
</g>
<g id="flowRoot20125" transform="matrix(0.27970805,0,0,0.27970805,-4384.9633,175.72589)" inkscape:export-ydpi="90" inkscape:export-xdpi="90" inkscape:export-filename="/home/lucasmac/dia_do_codigo_banner.png">
</g>
<g id="g8212" transform="matrix(0.65179474,0,0,0.65179474,-9105.8888,3.7762199)" inkscape:export-ydpi="90.023132" inkscape:export-xdpi="90.023132" inkscape:export-filename="/home/lucasmac/dia_do_codigo_banner.png">
	
		<g id="flowRoot8214" transform="matrix(1.1652465,0,0,1.1652465,5601.7132,-134.74932)" inkscape:export-ydpi="249.98048" inkscape:export-xdpi="249.98048" inkscape:export-filename="/home/lucasmac/cartaz_thd.png">
	</g>
	
		<g id="flowRoot8222" transform="matrix(0.55360108,0,0,0.55360108,5702.1082,263.45241)" inkscape:export-ydpi="249.98048" inkscape:export-xdpi="249.98048" inkscape:export-filename="/home/lucasmac/cartaz_thd.png">
	</g>
</g>
<g>
	<path fill="#212121" d="M203.5,448.4V345.6c0-1.9,0.6-3.5,1.9-4.8c1.3-1.3,3-1.9,5-1.9h30.1c14.8,0,26.9,5.4,36.1,16.1
		c9.2,10.7,13.9,24.7,13.9,41.7c0,17.7-4.6,31.9-13.7,42.5c-9.1,10.6-21.4,15.9-36.8,15.9h-29C206,455.1,203.5,452.9,203.5,448.4z
		 M217.4,442.7h21.9c11.1,0,20-4.1,26.5-12.5c6.5-8.3,9.8-19.5,9.8-33.6c0-13.5-3.3-24.4-9.9-32.7c-6.6-8.4-15.2-12.5-26-12.5h-22.3
		V442.7z"/>
	<path fill="#212121" d="M314.2,339.9c2.4,0,4.4,0.9,6,2.6c1.6,1.7,2.4,3.9,2.4,6.4c0,2.4-0.8,4.4-2.5,6c-1.7,1.7-3.7,2.5-6,2.5
		c-2.5,0-4.6-0.8-6.3-2.4c-1.7-1.6-2.6-3.7-2.6-6.1c0-2.6,0.9-4.7,2.6-6.4C309.5,340.8,311.7,339.9,314.2,339.9z M313.9,456.6
		c-1.9,0-3.5-0.6-4.8-1.9c-1.3-1.3-1.9-3-1.9-5v-75.3c0-1.8,0.7-3.4,2-4.8c1.3-1.3,3-2,4.9-2c1.8,0,3.4,0.6,4.7,1.9
		c1.3,1.3,1.9,2.9,1.9,4.8v75.3c0,1.8-0.6,3.4-1.9,4.8C317.5,455.9,315.9,456.6,313.9,456.6z"/>
	<path fill="#212121" d="M398.4,374c0-1.6,0.7-3,2.1-4.3c1.4-1.3,3.1-1.9,5.1-1.9c1.9,0,3.4,0.7,4.7,2c1.3,1.3,1.9,2.9,1.9,4.7v75.3
		c0,1.9-0.6,3.5-1.9,4.8c-1.3,1.3-2.8,1.9-4.7,1.9c-2,0-3.8-0.6-5.2-1.9c-1.4-1.3-2.1-2.9-2.1-4.8v-6.7c-4,5.3-7.6,8.8-10.8,10.6
		c-3.2,1.8-7.7,2.7-13.4,2.7c-10.7,0-19.6-4.2-26.6-12.5c-7-8.3-10.5-18.9-10.5-31.8c0-12.8,3.5-23.4,10.4-31.9
		c6.9-8.5,15.8-12.7,26.5-12.7c5.3,0,9.6,0.7,12.7,2.2c3.2,1.5,7,4.6,11.6,9.2V374z M351.3,412.2c0,10,2.1,17.9,6.4,23.8
		c4.3,5.9,10.2,8.8,17.6,8.8c15.8,0,23.7-11.1,23.7-33.3c0-5.8-0.4-10.5-1.3-14c-0.9-3.5-2.9-7.4-6.2-11.7
		c-3.3-4.2-8.5-6.4-15.6-6.4c-7.4,0-13.4,3-17.9,8.9C353.6,394.4,351.3,402.3,351.3,412.2z"/>
	<path fill="#212121" d="M536.8,336.5c0-1.9,0.7-3.5,2.1-4.8c1.4-1.3,3.1-1.9,5.2-1.9c1.8,0,3.4,0.6,4.7,1.9
		c1.3,1.3,1.9,2.9,1.9,4.8v113.1c0,1.9-0.7,3.6-2,4.9c-1.3,1.3-2.9,2-4.8,2c-1.9,0-3.6-0.7-5-2.1c-1.4-1.4-2.1-3.1-2.1-5v-6.8
		c-4.3,5.4-8.2,9-11.6,11c-3.4,1.9-7.9,2.9-13.4,2.9c-10.3,0-19-4.2-25.9-12.7c-7-8.5-10.5-19-10.5-31.6c0-12.9,3.5-23.5,10.6-31.9
		s16.1-12.6,27.1-12.6c5.2,0,9.3,0.9,12.5,2.6c3.2,1.7,6.9,5.2,11.2,10.3V336.5z M489.6,412.8c0,9.3,2.2,16.7,6.5,22.4
		s9.9,8.5,16.7,8.5c4,0,7.7-1,11.2-2.9c3.5-1.9,6.2-4.3,8.1-7.2c1.9-2.9,3.1-5.8,3.8-8.7c0.6-3,1-6.6,1-10.9c0-5.5-0.4-10.1-1-13.7
		c-0.7-3.7-1.9-6.9-3.7-9.9c-1.8-2.9-4.3-5.3-7.7-7.3c-3.3-1.9-6.9-2.9-10.6-2.9c-7.1,0-12.9,3-17.4,8.9c-4.5,5.9-6.8,13.5-6.8,22.6
		V412.8z"/>
	<path fill="#212121" d="M605.1,367.8c10.8,0,19.9,4.2,27.1,12.7c7.2,8.5,10.8,19.1,10.8,31.9c0,12.7-3.6,23.2-10.9,31.8
		c-7.3,8.5-16.3,12.8-27,12.8c-11,0-20.1-4.3-27.3-12.8c-7.3-8.5-10.9-19.2-10.9-31.9c0-12.7,3.6-23.2,10.8-31.7
		C584.9,372,594.1,367.8,605.1,367.8z M581.3,412.2c0,9.6,2.2,17.4,6.6,23.4c4.4,6,10.2,9,17.2,9c7,0,12.6-2.9,16.9-8.8
		c4.3-5.9,6.4-13.7,6.4-23.4c0-9.6-2.2-17.4-6.5-23.3c-4.4-5.9-10.1-8.9-17.2-8.9c-7,0-12.7,3-17,8.9
		C583.4,395,581.3,402.7,581.3,412.2z"/>
</g>
<g>
	
		<path id="path3181_1_" inkscape:export-ydpi="89.994164" inkscape:export-xdpi="89.994164" inkscape:export-filename="/home/lucasmac/devaneio2_dia_do_codigo____.png" inkscape:connector-curvature="0" fill="#FFBA31" d="
		M3296.5,692c0,80.9-65.6,146.4-146.4,146.4c-80.9,0-146.4-65.6-146.4-146.4c0-80.9,65.6-146.4,146.4-146.4
		C3230.9,545.6,3296.5,611.1,3296.5,692"/>
	
		<path id="path3183_1_" inkscape:export-ydpi="89.994164" inkscape:export-xdpi="89.994164" inkscape:export-filename="/home/lucasmac/devaneio2_dia_do_codigo____.png" inkscape:connector-curvature="0" fill="#FFFFFF" d="
		M3241.5,758.1c11.3-13.9,19.5-30.2,23.8-47.2c0.7-2.1,1-4.3,1.4-6.4c0.4-2.1,0.8-4.3,1.2-6.4c0.3-2.1,0.3-4,0.5-6
		c0-2.1,0-4.1,0-6.1c-0.4-8.3-1.8-16.7-3.8-24.8c3.2,13,5,26.2,3.2,38.1c1.4-9,0.8-17.8-0.5-26.9c-1.4-9.1-3.5-18.3-6.5-28.3
		c0.7,1.4,1.4,3.3,2.2,5.4c0.6,2.1,1.3,4.4,2,6.5c1.2,4.4,2.3,8.4,3.1,9.9c0.6,3,1.2,6.1,1.5,9.1c0.2,1.5,0.4,3,0.6,4.5l0.3,4.5
		c0.1,1.5,0.1,3,0.1,4.4c0,1.5,0.1,3-0.1,4.4l-0.4,4.2c-0.1,1.4-0.5,2.9-0.8,4.4c-1.9,12-6.1,23.4-11.8,34
		c-11.1,21.3-29.3,38.2-49.7,48.7c1.8-1.5,3.6-2.8,5.3-4c1.7-1.2,3.4-2.2,4.9-3.4c1.5-1.1,3-2.2,4.5-3.2c1.5-1,3-1.9,4.3-2.9
		c2.7-2.1,5.4-3.8,7.9-5.9C3236.9,762.7,3239.2,760.5,3241.5,758.1"/>
	
		<path id="path3185_1_" inkscape:export-ydpi="89.994164" inkscape:export-xdpi="89.994164" inkscape:export-filename="/home/lucasmac/devaneio2_dia_do_codigo____.png" inkscape:connector-curvature="0" fill="#FFFFFF" d="
		M3237,596.1c2.9,3.3,5.7,7,8.1,11C3242.4,602.8,3239.4,599.2,3237,596.1"/>
	
		<path id="path3187_1_" inkscape:export-ydpi="89.994164" inkscape:export-xdpi="89.994164" inkscape:export-filename="/home/lucasmac/devaneio2_dia_do_codigo____.png" inkscape:connector-curvature="0" fill="#FFFFFF" d="
		M3057.6,639.2c3.1-5.1,6.7-10,10.5-14.4C3064.4,629.3,3060.7,634.1,3057.6,639.2"/>
	
		<path id="path3189_1_" inkscape:export-ydpi="89.994164" inkscape:export-xdpi="89.994164" inkscape:export-filename="/home/lucasmac/devaneio2_dia_do_codigo____.png" inkscape:connector-curvature="0" fill="#FFFFFF" d="
		M3192,798.4c-0.7,0.3-1.4,0.6-2.1,0.9l-2.2,0.7c-1.5,0.4-2.9,0.9-4.4,1.3l-4.2,1l-4.3,0.5c-2.9,0.3-5.8,0.9-8.7,0.9
		c-2.9,0-5.8,0.1-8.7,0.1c-1.5,0.1-2.9-0.1-4.4-0.2l-4.4-0.4l-4.4-0.4c-1.5-0.2-2.9-0.5-4.4-0.8c-2.9-0.6-5.8-1-8.7-1.7
		c-2.8-0.8-5.7-1.6-8.6-2.4c-1.4-0.4-2.8-0.9-4.2-1.4l-4.2-1.6c12,4.7,25.4,7.7,38.7,8.1C3166.2,803.3,3179.5,801.6,3192,798.4"/>
	
		<path id="path3191_1_" inkscape:export-ydpi="89.994164" inkscape:export-xdpi="89.994164" inkscape:export-filename="/home/lucasmac/devaneio2_dia_do_codigo____.png" inkscape:connector-curvature="0" fill="#FFFFFF" d="
		M3216,790.3l3.9-2.3c1.3-0.8,2.6-1.5,3.8-2.5l7.3-5.3c4.6-3.9,9.3-7.7,13.3-12.1c4.4-4.1,7.9-9,11.7-13.5c3.3-4.9,6.9-9.6,9.5-14.7
		c-2.6,5.2-6.2,9.9-9.4,14.8c-3.8,4.5-7.3,9.4-11.6,13.5c-4,4.5-8.8,8.2-13.4,12.1c-2.5,1.8-4.9,3.5-7.4,5.3
		c-1.2,0.9-2.5,1.7-3.8,2.5L3216,790.3"/>
	
		<path id="path3193_1_" inkscape:export-ydpi="89.994164" inkscape:export-xdpi="89.994164" inkscape:export-filename="/home/lucasmac/devaneio2_dia_do_codigo____.png" inkscape:connector-curvature="0" fill="#FFFFFF" d="
		M3222.9,617.2c0.1-0.2,0.6,0.1,1.2,0.7c0.6,0.6,1.1,1.2,1.5,1.7c6.4,9.7,11,21,12.9,32.4c-0.6-2.8-1.8-5.3-2.6-8.1
		c-0.9-3.1-1.6-5.6-2.5-7.7c-0.7-2.2-1.5-4-2.3-5.9C3229.4,626.5,3227.4,622.6,3222.9,617.2"/>
	
		<path id="path3195_1_" inkscape:export-ydpi="89.994164" inkscape:export-xdpi="89.994164" inkscape:export-filename="/home/lucasmac/devaneio2_dia_do_codigo____.png" inkscape:connector-curvature="0" fill="#FFFFFF" d="
		M3054.2,644.9l-0.2,0.6c-0.9,1.8-1.9,3.6-2.7,5.4c-0.1,0.2-0.2,0.4-0.4,0.6C3051.8,649.3,3053.1,647.1,3054.2,644.9"/>
	
		<path id="path3197_1_" inkscape:export-ydpi="89.994164" inkscape:export-xdpi="89.994164" inkscape:export-filename="/home/lucasmac/devaneio2_dia_do_codigo____.png" inkscape:connector-curvature="0" fill="#FFFFFF" d="
		M3213.7,606.2c0.1-0.4,0.3-0.9-0.2-1.8c4.4,4.6,8.4,9.5,12.1,15c-0.5-0.6-1-1.1-1.5-1.6C3221.3,614.4,3217.3,609.2,3213.7,606.2"/>
	
		<path id="path3199_1_" inkscape:export-ydpi="89.994164" inkscape:export-xdpi="89.994164" inkscape:export-filename="/home/lucasmac/devaneio2_dia_do_codigo____.png" inkscape:connector-curvature="0" fill="#FFFFFF" d="
		M3079.4,594.3c-1.7,1-3.1,2.2-4.4,3.2c-1.3,1.2-2.5,2.3-3.2,3c-9.5,6.5-17.1,13.9-24.7,23.8c-1,1.7-3.2,5.1-4.9,8.6
		c-1.5,1.8-3,3.7-4.4,5.9c6.6-12.1,14.8-23.1,25.6-33.1c1.3-1.2,2.7-2.5,4.2-3.6c1.4-1.2,3-2.4,4.6-3.5l2.4-1.7l2.2-1.3l4.4-2.6
		c1.5-0.9,2.9-1.8,4.4-2.6l4.7-2.4c3.1-1.6,6.2-3.2,9.6-4.4c-3.6,1.4-6.9,3.2-10.4,5c-1.7,0.9-3.5,1.7-5.1,2.7
		C3082.8,592.3,3081.1,593.3,3079.4,594.3"/>
	
		<path id="path3201_1_" inkscape:export-ydpi="89.994164" inkscape:export-xdpi="89.994164" inkscape:export-filename="/home/lucasmac/devaneio2_dia_do_codigo____.png" inkscape:connector-curvature="0" fill="#FFFFFF" d="
		M3148.1,711.8c9-1.4,17.8-6.4,23.7-14.1c5.9-7.6,8.7-17.9,7.3-27.6c-1.4-9.8-7.1-18.8-15-24.3c-3.9-2.7-8.4-4.6-13-5.5
		c-4.6-0.9-9.2-0.7-13.3-0.1c4.8-0.3,10.4,0,15.5,1.8c5.1,1.8,9.9,4.8,13.7,8.7c7.7,7.8,10.9,19.1,9.5,28.4
		c-0.6,4.7-2.3,8.9-4.4,12.4c-2.1,3.4-4.7,6.1-7.1,8c-4.9,3.8-9.2,4.6-10.7,4.3c-1.6-0.5,0.6-1.5,4.1-4c3.5-2.5,8.6-7.1,11.3-14.2
		c2.8-7,2.8-16.3-1.1-23.8c-1.9-3.8-4.7-7-7.7-9.5c-3.1-2.5-6.5-4.1-9.7-5.1c3.2,1.5,3.2,1.5,6.1,3.5c-2.8-2.1-6.1-3.6-9.2-3.8
		c1.7,0.5,3.7,1.3,5.7,2.3c2,1.1,4,2.4,5.7,3.9c3.4,3,5.5,6.7,5.9,8.5c0,0-0.2-0.3-0.6-0.7c-0.4-0.4-0.9-0.9-1.4-1.4
		c-0.5-0.5-1.1-0.9-1.5-1.2c-0.4-0.3-0.7-0.5-0.7-0.5c2.2,3.3,4.3,7.5,4.9,12.3c0.7,4.8-0.2,10.1-2.4,14.5c-2.4,4.3-6,7.9-10,9.6
		c-3.9,1.8-7.9,1.9-10.9,1.3c3.7,0.5,7.7,0,11.4-1.8c3.7-1.8,7-4.9,9.2-8.9c1-2,1.9-4.2,2.3-6.5c0.4-2.3,0.5-4.8,0.2-7.2
		c-0.7-4.8-2.9-9.6-6.7-13.2c-3.6-3.7-8.7-6.1-14.1-6.8c-2.6-0.3-5.8-0.1-8.8,0.2c-3,0.5-6.1,1.1-8.9,2.2c-2.9,1-5.5,2.5-7.9,4.1
		c-1.2,0.9-2.3,1.9-3.5,3l-3.5,3.4c-4.2,4.7-7.2,10.4-8.9,16.5c-3.4,12.4-1.1,26.5,5.2,38.4c3.1,5.9,7.3,11.5,12.1,16
		c4.8,4.5,10.4,8,16.4,10c12.2,4,26,1.9,38.5-3.2c6.2-2.5,12.8-5.8,17.1-9.4l3.5-3.1c1.1-1.2,2.1-2.4,3.2-3.6
		c0.5-0.6,1.1-1.2,1.6-1.8l1.4-2l2.9-3.9l2.7-4.7c0.4-0.8,0.9-1.6,1.3-2.4l1.1-2.5l2.2-4.9l1.6-5.1l0.8-2.5c0.2-0.9,0.3-1.7,0.5-2.6
		l1-5.1c0.5-3.5,0.9-7.2,1-10.7c0.7-14.2-2.4-27.3-9.1-38c-3.4-5.4-7.6-10.2-12.3-14.7c-4.8-4.3-9.8-8.1-15.1-11.1
		c-5.4-2.8-10.9-5-16.4-6.4c-1.4-0.3-2.8-0.5-4.2-0.8l-2.1-0.4l-2.1-0.1l-4.2-0.3l-4.2,0.1c-2.1-0.2-5,0.3-8.3,0.4
		c-3.3,0.5-7.2,0.9-11.2,2c-8,1.9-16.9,5.1-24.1,8.9c-3.2,1.6-6.2,3.6-9.2,5.6c-3.4,2.1-5.2,3.5-7.7,5.7c-4.7,4.2-9.1,9.6-13,15.2
		c-7.7,11.3-13.2,24.3-13.9,35.9l-0.2,2.5l-0.2,2.8l-0.4,5.6c-0.1,0.9-0.2,1.9-0.2,2.8l0.1,2.7l0.1,5.3c-0.1,1.8,0.3,3.5,0.5,5.2
		l0.6,5.2c0.5,3.4,1.5,6.7,2.1,10.1c3.7,13.2,10.3,25.4,19.5,35.7c9.2,10.3,21,18.7,34.7,24.1c13.6,5.4,29.2,8.6,44,8
		c1.5-0.1,3.1,0,4.6,0c1.5-0.1,3.1-0.2,4.5-0.2c2.8,0,5.1,0.1,6.2,0.5c1,0.2,0.9,1-1.6,1.7c-1.2,0.4-3,0.9-5.4,1.4
		c-1.2,0.2-2.6,0.7-4.1,0.7c-1.6,0.1-3.3,0.2-5.2,0.4c-1.6,0.1-3.2,0.3-4.8,0.3l-4.8-0.2l-4.9-0.2c-1.6,0-3.3-0.4-4.9-0.6
		c-6.6-0.8-13.1-2.3-19.5-4.2c-12.7-3.9-24.7-10.2-34.7-18.7c1.5,0.6,4.7,2.7,8.1,5.2c1.7,1.2,3.7,2.2,5.5,3.2
		c1.8,1,3.4,1.9,4.8,2.4c-2.1-1.2-4-2.6-6-3.8c-1-0.6-1.9-1.2-2.9-1.8c-0.9-0.7-1.8-1.4-2.6-2.1c-1.7-1.4-3.5-2.7-5.2-4.1
		c-1.6-1.5-3.1-3-4.7-4.5c-0.8-0.8-1.6-1.4-2.3-2.2l-2.1-2.4c-1.4-1.6-2.9-3.2-4.2-4.9c-2.5-3.6-5.3-7-7.4-11.1
		c6.2,10.6,14.5,19.9,24.5,27.3c-3.3-2.1-6-4.9-9-7.5c-1.6-1.2-2.7-2.9-4.1-4.3c-1.3-1.5-2.8-2.9-3.9-4.5c-2.3-3.3-4.9-6.4-6.8-10
		c-1-1.8-2.1-3.5-3-5.3c-0.8-1.9-1.7-3.8-2.5-5.7c-0.9-1.8-1.6-3.8-2.2-5.8c-0.6-2-1.4-3.9-1.9-6l-1.4-6.2c-0.2-1-0.5-2.1-0.7-3.1
		l-0.4-3.2l-0.8-6.4c-0.1-2.1-0.1-4.3-0.2-6.5c-0.3-4.2,0.2-8.8,0.5-13.3c0.5-6.6,2.3-11.3,4.8-17c2.7-5.8,5.6-12,9.4-19.9
		c-6.2,9.2-11.4,19.5-13.4,29.6c-0.5,2.6-0.8,5.3-1.2,8.4c-0.3,3-0.8,6-0.9,8.9l-0.1,8.7c0.1,2.9,0.5,5.7,0.7,8.6
		c1.3,11.4,4.6,22.6,10,32.7c5.4,10.1,12.6,19.4,21.6,26.7c-0.1,0-0.2-0.1-0.2-0.1c8.1,6.5,16.6,11.7,25.6,15.7
		c2.2,1,4.6,1.8,6.9,2.7l3.5,1.3c1.2,0.4,2.4,0.7,3.6,1c2.4,0.7,4.8,1.3,7.3,2c2.5,0.4,5,0.9,7.5,1.3l-4.8-0.7
		c-1.6-0.2-3.2-0.5-4.7-0.9c-3-0.8-6-1.5-8.6-2.4c3.6,1.1,7.1,2.1,10.7,3.2c3.7,0.7,7.4,1.5,11,2.2c3.7,0.4,7.3,0.7,10.9,1.1l11-0.1
		c14.6-0.9,29-5.2,42-12.1c-2.2,1.3-4.6,2.4-6.9,3.7c-1.2,0.6-2.3,1.3-3.5,1.8l-3.7,1.4l-3.7,1.5c-1.2,0.5-2.5,1-3.8,1.3
		c-2.6,0.7-5.1,1.4-7.7,2.1c-1.3,0.4-2.6,0.6-3.9,0.8l-4,0.6l-4,0.6c-1.3,0.1-2.7,0.1-4.1,0.2c-2.7,0.1-5.4,0.3-8.2,0.3
		c-2.7-0.2-5.5-0.3-8.2-0.5c-22.2-2-44.2-10.2-61.6-24.2c-17.1-14.2-29.5-34.1-33.6-55.9c-2.2-10.9-2.9-21.8-1.7-33.1
		c0.4-5.8,0.9-10.8,2.3-15.9c1.3-5.1,3.1-10.1,5.4-14.9c-3,5.2-5.6,11.3-7.1,17.6c-0.7,3.1-1.2,6.4-1.4,9.9
		c-0.3,3.5-0.5,7.1-0.8,10.6c-0.4,13.9,2,27,4.3,37.4l-1.1-3.5c-0.2-0.6-0.4-1.2-0.6-1.8l-0.4-1.8l-1.6-7.3c-0.5-2.4-0.6-5-0.9-7.4
		c-0.3-2.5-0.6-5-0.5-7.5l-0.1-7.5c0.1-2.5,0.4-5.1,0.6-7.7c0.4-5.2,0.9-10.1,2.1-14.7c1.2-4.7,3-9.4,5-13.9c2.1-4.5,4.6-9,7.3-13.2
		c2.8-4.2,5.8-8.3,9.1-12.2c3.3-3.8,6.9-7.4,10.7-10.5c-2.1,2-4.1,4.1-6,6.3c2.3-2.1,4.6-4.2,7-6l1.8-1.4l1.8-1.2
		c1.1-0.8,2.7-1.7,4.1-2.5c5.6-3.4,11.4-6.5,17.3-9.3c11.8-5.4,24.4-8.7,36.6-8.8c2.2-0.1,4.3,0.3,6.5,0.4c-2.1-0.1-4.3-0.5-6.5-0.4
		c-11.1,0-22.3,2.4-33,6.5c-5.4,2-10.5,4.6-15.6,7.2c-2.5,1.5-5,2.9-7.5,4.4c-1.3,0.7-2.3,1.5-3.4,2.2c-1.1,0.7-2.1,1.6-3.2,2.4
		c1.9-1.7,3.7-3.2,5.9-4.7c2.3-1.5,4.7-2.9,7.2-4.5c5-2.8,10.5-5.6,16.7-7.9c-7,1.7-16.4,6.4-25.5,11.8c-5.4,3.6-10.3,8.2-14.8,13.3
		c-4.5,5.1-8.5,10.6-12,16.4c2.6-4.5,5.6-8.9,8.8-12.9c3.2-4.1,6.6-8,10.2-11.4c3.6-3.5,7.4-6.3,11.7-9c2.1-1.3,4.1-2.9,6.3-4
		c2.1-1.2,4.3-2.4,6.4-3.6c-3.2,1.6-6.6,3-9.8,4.9c-3.1,1.9-6.5,3.6-9.4,5.6c-5.9,4-11.2,9.1-15.9,14.7c-9.4,11.2-17,24.4-21.1,38.2
		c4.2-15.4,12.5-29.7,23-41.8c4.6-4.9,9.6-9.5,15.1-13.1l8.8-5.2c3-1.6,6.1-3.1,9.1-4.6c3.1-1.4,6.3-2.6,9.4-3.9
		c3.2-1.1,6.5-2.1,9.7-3.1c6.6-1.5,13.3-2.9,20-3l-3.1,0.2l6.1-0.3c2.6,0,5.3,0.3,7.9,0.4c2.6,0.3,5.2,0.8,7.8,1.2
		c2.5,0.7,5.1,1.3,7.6,2.1l3.7,1.4l1.9,0.7l1.8,0.8c8.7,3.8,16.8,8.8,24,14.9c1.2,1.1,2.4,2.2,3.4,3.3c-1.1-1-2.1-1.6-2.2-1.5
		c-0.1,0.1,0.6,0.9,2.5,3.1c8.1,9.4,15,20.3,18.2,33.2c1.6,6.4,2.2,13.2,2,20c-0.1,3.4-0.5,6.9-1,10.4c-0.3,1.7-0.6,3.5-0.9,5.2
		c-0.5,1.7-0.9,3.4-1.4,5c-0.5,1.8-1,3.7-1.8,5.7c-0.7,2-1.5,4.1-2.3,6.3c-1,2.2-2,4.4-3.1,6.7c-1.1,2.3-2.5,4.5-3.8,6.9
		c-1.8,2.3-2.7,3.5-3.2,4.8c-0.7,0.9-1.3,1.9-2,2.9l-2.3,2.6c-3.7,4.4-8.1,7.8-12.6,10.8c4.6-2.8,9-6.3,12.6-10.8l2.1-2.4
		c0.7-0.8,1.3-1.7,1.9-2.6c-0.3,0.7-0.6,1.4-1.1,2.3c-0.5,0.8-1.3,1.7-2.3,2.9c6.6-7.3,12-16,15.9-25.4l2.6-7.2l1.8-7.4
		c1-5,1.7-10.2,1.9-15.3c0.6-10.3-0.8-20.7-4.3-30.4c-3.7-9.7-9.6-18.4-16.9-25.9c1,0.8,2.1,1.8,3.1,2.8c1,1,1.9,1.9,2.4,2.4
		c-2.8-3-5.8-5.9-9-8.5c-2.4-2.4-5.1-4.4-7.7-6.5c-2.8-1.9-5.5-3.9-8.5-5.4c-2.9-1.8-6-3-9-4.4l-4.7-1.7c-1.6-0.6-3.2-1-4.8-1.4
		c1,0.2,1.9,0.4,2.9,0.6c0.9,0.3,1.8,0.5,2.7,0.8c1.8,0.5,3.5,0.8,5.1,1.4c-8.8-3.9-18.4-6-28.1-6.2c-9.7-0.2-19.4,1.4-28.7,4.2
		c-9.4,2.7-18.2,7.2-26.7,12c-4.2,2.6-8.5,5-12.1,8.1c-3.8,3-7.2,6.5-10.4,10.1c-6.2,6.7-11.5,14.2-15.9,22.2
		c-4.4,8-7.8,16.5-9.6,25.4c-2.9,17.9-3.4,36.7,1.6,54.3c-2-9.6-3.3-19.6-2.9-29.8l0.1-3.8c0-1.3,0-2.5,0.2-3.8
		c0.3-2.6,0.6-5.1,0.8-7.7c0.2-2.6,0.6-5.1,1-7.6c0.6-2.5,1-5,1.8-7.4c-1.8,6.5-2.3,13.3-2.8,20.3c-0.1,1.7-0.4,3.5-0.3,5.2l0.1,5.1
		l0.1,5.1c0.1,1.7,0.4,3.4,0.5,5.1c1.4,13.6,5.3,26.9,11.7,38.9c12.7,24.2,35.5,42.4,61.5,51.4c-10-1.7-22.6-7.5-28.9-9.6
		c-0.1,0.4,3.8,3.1,6.6,5c1.3,1,2.5,1.6,2.7,1.8c0.2,0.1-0.7,0-3.1-1.3c-17.8-8.7-30.3-21.1-38.7-32.5c-1-1.4-2.2-2.7-3.1-4.2
		c-0.9-1.4-1.8-2.8-2.6-4.2c-0.9-1.3-1.7-2.6-2.5-3.9c-0.8-1.3-1.4-2.6-2.1-3.8c-1.4-2.5-2.7-4.8-4.1-6.9c-1.1-2.2-2.3-4.2-3.5-6
		c-0.5-0.7-0.3,1.7,0.3,5.4c0.2,1.9,0.9,4,1.5,6.3c0.7,2.3,1.3,4.7,2,7c1.7,4.5,3.4,8.7,4,11c0.3,1.2,0.5,1.7,0.2,1.7
		c-0.3,0-1-0.7-2-2.4c-0.9-1.4-1.8-3-2.8-4.6c-1-1.7-2.2-3.4-3.1-5.5c-1-2-2-4.2-3-6.4c-0.5-1.1-1.1-2.3-1.6-3.5
		c-0.4-1.2-0.9-2.5-1.3-3.7c-0.9-2.6-1.8-5.2-2.7-7.9c-0.6-2.8-1.3-5.7-2-8.6c-0.3-1.5-0.7-2.9-0.9-4.4c-0.2-1.5-0.4-3-0.6-4.6
		c-0.3-3.1-0.9-6.2-1-9.4c0-3.6,0-7.3,0-11.1c0.2-3.7,0.6-7.3,0.9-11.1c0.2-1,0-2.4,0-4.6c0.2-1.8,0.4-3.5,0.7-5.3
		c0.4-1.8,0.7-3.6,1.1-5.4c0.9-3.5,1.8-6.9,3-10.1c2.3-6.4,4.9-12.3,7.8-17.4c5.6-10.4,12-18.4,16.9-23.9c3.6-4,7.6-7.8,12-11.4
		c1.3-0.8,2.4-1.6,3.5-2.3c1.2-0.6,2.2-1.2,3.2-1.6l1.1-0.9l1-0.7l2-1.4l4-2.8c12-6.8,24.8-12.4,38.6-15.6l5.8-1
		c2-0.2,4-0.4,5.9-0.5c3.9-0.5,7.9-0.3,11.9-0.3c-0.2-0.3-1.5-0.6,0.1-1c9.1,0.1,18.2,1.1,27,3.9c8.7,2.7,17,6.5,24.5,11.4
		c5.8,4.4,10.7,8.9,14.2,13.5c3.9,2.7,8.4,7,13.1,12.8c4.6,5.8,9.1,13.2,12.2,21.7c3.1,8.5,4.8,17.8,5.2,26.6
		c0.4,8.9-0.4,17.2-1.5,24.5l0.1,0c-0.6,3.7-1.7,7.7-2.6,11.5c-1.2,3.8-2.5,7.4-3.9,11.1c-1.7,3.5-3.2,7.1-5.2,10.5
		c-2.1,3.3-3.9,6.8-6.4,9.9c-1.8,1.9-3.4,3.8-5.2,5.4c-2.4,3.2-5.1,6.4-6.6,7.9c-1.3,1.1-2.6,2.1-3.8,3.2c-1.2,1-2.9,1.9-4.3,2.8
		c-0.7,0.4-1.4,0.9-2.2,1.3c-0.7,0.4-1.5,0.9-2,1.1c-1.2,0.6-2.5,1.1-3.7,1.7c-2.4,1.1-4.9,2-7.3,3c-2.5,0.8-4.9,1.7-7.5,2.4
		c-1.7,0.8-4.9,2.8-9,3.7c-8.2,1.8-16.6,2.6-25.1,1.8c-9.9-1-19.9-4.7-28.2-10.5c-7.1-4.9-12.8-11-17.5-17.3
		c-4.7-6.5-8.3-13.6-10.9-21.1c-2.6-7.5-4-15.5-4.1-23.5c-0.1-8,1.3-16.2,4.4-23.8c0.6-0.9,1.1-0.9,1.6-1c0.8-2.4,1.9-5.2,3.5-7.7
		c0.8-1.3,1.5-2.5,2.3-3.7c0.8-1.1,1.6-2.1,2.2-3.1c-0.4,0.8-0.6,1.3-0.4,1.3c1.1-1.5,2-2.9,3-4c1-1.1,1.9-2,2.7-2.9
		c1.6-1.7,3.5-3.1,5.1-4.4c1.7-1.3,3.7-2.3,5.7-3.5c2.2-1,4.6-2.3,7.7-3.3c1.4-0.6,2.7-1.2,4-1.6c1.3-0.5,2.7-1.1,4.1-1.4
		c1.4-0.2,2.8-0.5,4.2-0.7c1.9,0.1,3.7-0.1,5.5,0.1l2.8,0.1l2.9,0.3c3.9,0.5,7.8,1.4,11.5,2.9c7.5,2.9,14.3,8.1,19.2,15.3
		c4.6,7.4,6.7,16.2,5.9,24.7c-0.7,8.5-4.4,16.6-10,22.8c-4.5,4.9-8.7,7-12.4,8.4C3155.9,710.9,3152.4,711.5,3148.1,711.8"/>
	
		<path id="path3203_1_" inkscape:export-ydpi="89.994164" inkscape:export-xdpi="89.994164" inkscape:export-filename="/home/lucasmac/devaneio2_dia_do_codigo____.png" inkscape:connector-curvature="0" fill="#FFFFFF" d="
		M3239.1,656.1c0.9,7.5,0.8,14.9,0.1,22c-0.4,3.5-0.9,7.1-1.5,10.5c-0.3,1.7-0.7,3.5-1.2,5.3l-1.4,5.3c0.4-1.9,0.9-3.8,1.3-5.7
		c0.2-0.9,0.4-1.9,0.6-2.8c0.1-0.9,0.3-1.8,0.4-2.7c0.6-3.5,0.9-7.1,1.2-10.6C3239.1,670.4,3239.2,663.4,3239.1,656.1"/>
	
		<path id="path3205_1_" inkscape:export-ydpi="89.994164" inkscape:export-xdpi="89.994164" inkscape:export-filename="/home/lucasmac/devaneio2_dia_do_codigo____.png" inkscape:connector-curvature="0" fill="#FFFFFF" d="
		M3049.8,772.1c0.7,1.3,1.4,2.7,2.3,4c0.9,1.3,1.9,2.6,2.8,3.9c2,2.6,4,5.5,6.7,8c-0.9-0.8-1.8-1.6-2.6-2.4l-2.4-2.7l-4.7-5.4
		c-3-3.7-5.7-7.7-8.5-11.6l-3.6-6.2c-1.1-2.1-2.5-4.1-3.4-6.3l-2.9-6.6l-1.4-3.3l-1.1-3.4c-1.4-4.5-3.1-9.1-3.9-13.7l-1.5-7
		c-0.4-2.3-0.6-4.7-0.9-7.1l-0.7-7.1l-0.1-7.1c0-2.4-0.1-4.8,0-7.1l0.6-6.8l0.1,0c-0.2,3.6-0.7,7.4-0.5,11.6c0,2.1,0,4.2,0.1,6.3
		c0,1.1,0,2.1,0,3.2c0.1,1.1,0.2,2.2,0.3,3.2c0.7,8.7,2.2,17.6,4.7,26C3034.2,751.3,3042.7,765.4,3049.8,772.1"/>
	
		<path id="path3207_1_" inkscape:export-ydpi="89.994164" inkscape:export-xdpi="89.994164" inkscape:export-filename="/home/lucasmac/devaneio2_dia_do_codigo____.png" inkscape:connector-curvature="0" fill="#FFFFFF" d="
		M3224,617.8c0.4,0.4,1,0.9,1.5,1.6c0,0,0,0.1,0.1,0.1C3225.1,619,3224.6,618.5,3224,617.8"/>
	
		<path id="path3209_1_" inkscape:export-ydpi="89.994164" inkscape:export-xdpi="89.994164" inkscape:export-filename="/home/lucasmac/devaneio2_dia_do_codigo____.png" inkscape:connector-curvature="0" fill="#FFFFFF" d="
		M3112.2,799.4c1,0.4,2,0.7,3,1.1l-5.7-2c-1.9-0.6-3.7-1.6-5.5-2.4l-5.5-2.5c-1.8-0.9-3.5-2-5.3-3c1.4,0.8,2.9,1.6,4.4,2.4
		c1.5,0.8,3.1,1.4,4.7,2.2C3105.4,796.7,3108.6,798.3,3112.2,799.4"/>
	
		<path id="path3211_1_" inkscape:export-ydpi="89.994164" inkscape:export-xdpi="89.994164" inkscape:export-filename="/home/lucasmac/devaneio2_dia_do_codigo____.png" inkscape:connector-curvature="0" fill="#FFFFFF" d="
		M3197.1,802.5c15.6-5.6,29.9-14.5,42-25.7l3-2.6l2.8-2.8c1.8-1.9,3.7-3.8,5.5-5.7c1.7-2,3.3-4.1,5-6.1l2.5-3c0.8-1,1.5-2.1,2.2-3.2
		c1.5-2.2,2.9-4.3,4.4-6.4c1.4-2.2,2.5-4.5,3.8-6.7c2.7-4.4,4.6-9.1,6.7-13.7c-6.6,17.5-17,33.6-30.3,46.8
		C3231.4,786.5,3214.9,796.5,3197.1,802.5"/>
	
		<path id="path3213_1_" inkscape:export-ydpi="89.994164" inkscape:export-xdpi="89.994164" inkscape:export-filename="/home/lucasmac/devaneio2_dia_do_codigo____.png" inkscape:connector-curvature="0" fill="#FFFFFF" d="
		M3106.6,815.2c7,3.2,14.4,5.5,21.9,7.7c-7.6-1.9-15.1-3.9-22.3-6.8C3107.6,816.4,3106.6,815.6,3106.6,815.2"/>
	
		<path id="path3215_1_" inkscape:export-ydpi="89.994164" inkscape:export-xdpi="89.994164" inkscape:export-filename="/home/lucasmac/devaneio2_dia_do_codigo____.png" inkscape:connector-curvature="0" fill="#FFFFFF" d="
		M3058.9,759.4c1,1.3,2,2.7,2.9,4l-4.1-4.9c-1.4-1.6-2.4-3.5-3.7-5.3C3055.1,754.4,3057,757.6,3058.9,759.4"/>
	
		<path id="path3217_1_" inkscape:export-ydpi="89.994164" inkscape:export-xdpi="89.994164" inkscape:export-filename="/home/lucasmac/devaneio2_dia_do_codigo____.png" inkscape:connector-curvature="0" fill="#FFFFFF" d="
		M3188.4,823.6c-5.7,1.5-11.6,1.8-17.3,2.6c3.4-0.6,6.8-1.3,10.1-2.1C3183.1,824.3,3185.6,824,3188.4,823.6"/>
	
		<path id="path3219_1_" inkscape:export-ydpi="89.994164" inkscape:export-xdpi="89.994164" inkscape:export-filename="/home/lucasmac/devaneio2_dia_do_codigo____.png" inkscape:connector-curvature="0" fill="#FFFFFF" d="
		M3264.1,777.1c2.4-3.1,4.9-6.2,7.2-9.2c2.4-3,4.2-6.3,6.3-9.4c-2.4,3.9-4.7,7.9-7.7,11.6c-2.8,3.7-5.5,7.5-8.8,10.8
		C3262.4,779.1,3263.4,777.7,3264.1,777.1"/>
	
		<path id="path4539_1_" inkscape:export-ydpi="89.994164" inkscape:export-xdpi="89.994164" inkscape:export-filename="/home/lucasmac/devaneio2_dia_do_codigo____.png" inkscape:connector-curvature="0" fill="#FFBA31" d="
		M3067.5,518.3c4.9,8.2,2.1,18.8-6.1,23.7l0,0c-8.2,4.9-18.8,2.1-23.7-6.1l-10.8-23c-4.2-7.1-1.8-16.2,5.3-20.4l0,0
		c7.1-4.2,16.2-1.8,20.4,5.3L3067.5,518.3"/>
	
		<path id="path4541_1_" inkscape:export-ydpi="89.994164" inkscape:export-xdpi="89.994164" inkscape:export-filename="/home/lucasmac/devaneio2_dia_do_codigo____.png" inkscape:connector-curvature="0" fill="#FFBA31" d="
		M3273.2,871c4.2,7.1,1.8,16.2-5.3,20.4l0,0c-7.1,4.2-16.2,1.8-20.4-5.3l-14.9-20.6c-4.9-8.2-2.1-18.8,6.1-23.7l0,0
		c8.2-4.9,18.8-2.1,23.7,6.1L3273.2,871"/>
	
		<path id="path4543_1_" inkscape:export-ydpi="89.994164" inkscape:export-xdpi="89.994164" inkscape:export-filename="/home/lucasmac/devaneio2_dia_do_codigo____.png" inkscape:connector-curvature="0" fill="#FFBA31" d="
		M3323.7,609.4c-8.2,4.9-18.8,2.1-23.7-6.1l0,0c-4.9-8.2-2.1-18.8,6.1-23.7l23-10.8c7.1-4.2,16.2-1.8,20.4,5.3l0,0
		c4.2,7.1,1.8,16.2-5.3,20.4L3323.7,609.4"/>
	
		<path id="path4547_1_" inkscape:export-ydpi="89.994164" inkscape:export-xdpi="89.994164" inkscape:export-filename="/home/lucasmac/devaneio2_dia_do_codigo____.png" inkscape:connector-curvature="0" fill="#FFBA31" d="
		M3214.5,510.8c-2.4,9.3-11.8,14.8-21.1,12.5l0,0c-9.3-2.4-14.8-11.8-12.5-21.1l8.6-23.9c2.1-8,10.2-12.8,18.2-10.7l0,0
		c8,2,12.8,10.2,10.7,18.2L3214.5,510.8"/>
	
		<path id="path4549_1_" inkscape:export-ydpi="89.994164" inkscape:export-xdpi="89.994164" inkscape:export-filename="/home/lucasmac/devaneio2_dia_do_codigo____.png" inkscape:connector-curvature="0" fill="#FFBA31" d="
		M3110.5,905.7c-2.1,8-10.2,12.8-18.2,10.7l0,0c-8-2.1-12.8-10.2-10.7-18.2l4-25.1c2.4-9.3,11.8-14.8,21.1-12.5l0,0
		c9.3,2.4,14.8,11.8,12.5,21.1L3110.5,905.7"/>
	
		<path id="path4551_1_" inkscape:export-ydpi="89.994164" inkscape:export-xdpi="89.994164" inkscape:export-filename="/home/lucasmac/devaneio2_dia_do_codigo____.png" inkscape:connector-curvature="0" fill="#FFBA31" d="
		M3331.2,756.4c-9.3-2.4-14.8-11.8-12.5-21.1l0,0c2.4-9.3,11.8-14.8,21.1-12.5l23.9,8.6c8,2,12.8,10.2,10.7,18.2l0,0
		c-2.1,8-10.2,12.8-18.2,10.7L3331.2,756.4"/>
</g>
<g>
	<path fill="#FFFFFF" d="M2182.1,504.7c48.5,0,84.4,19.1,84.4,44.9c0,16-12.1,28.9-26.2,28.9c-5.9,0-8.6-0.8-24.2-6.6
		c-13.3-5.5-24.6-7.8-36.3-7.8c-42.6,0-71.9,34.8-71.9,86c0,51.2,28.9,85.2,71.9,85.2c12.9,0,25.4-2.7,39.1-8.6
		c5.9-2.7,9.4-4.3,10.9-4.7c3.5-2,8.6-2.7,12.5-2.7c15.2,0,27,12.9,27,29.3c0,26.2-39.5,47.3-88.7,47.3
		c-81.3,0-138.7-60.6-138.7-145.4C2041.8,565.3,2100,504.7,2182.1,504.7z"/>
	<path fill="#FFFFFF" d="M2378,576.6c58.6,0,103.5,48.1,103.5,109.8c0,61.7-44.9,109.4-103.5,109.4
		c-58.6,0.4-103.2-47.7-103.2-110.2C2274.8,624.3,2319.8,576.6,2378,576.6z M2355.7,563.7c-15.2,0-27.4-9.4-27.4-21.1
		c0-11.7,6.3-22.3,15.6-26.2l51.2-20.3c2.3-0.8,4.7-1.2,6.6-1.2c14.8,0,27,9.8,27,21.5c0,12.1-5.9,22.3-14.8,25.8l-52,20.3
		C2360,563.4,2358.1,563.7,2355.7,563.7z M2328.6,686.4c0,32.8,18.4,56.3,43.4,56.3c25.4,0,43.4-23.1,43.4-55.9
		c0-32.4-18.4-55.5-43.4-55.5S2328.6,654.4,2328.6,686.4z"/>
	<path fill="#FFFFFF" d="M2637.2,517.1c0-16.8,13.7-30.5,30.5-30.5c16.8,0,30.1,14.1,30.1,30.5V766c0,16.4-13.3,30.1-30.5,30.1
		c-7,0-17.6-9.4-27.7-25c-19.1,20.3-29.3,25-52.7,25c-53.1,0-94.9-48.5-94.9-109.4c0-61.3,41.8-108.6,96.1-108.6
		c19.9,0,30.1,4.3,49.2,20.3V517.1z M2551.6,687.4c0,31.3,18.4,53.9,43,53.9c25.4,0,43.8-22.3,43.8-53.1c0-32.4-18-54.7-43.4-54.7
		C2570.4,633.5,2551.6,656.6,2551.6,687.4z"/>
	<path fill="#FFFFFF" d="M2745.4,490.1c18.4,0,34,16,34,35.2c0,19.1-14.8,34.4-34,34.4c-19.5,0-35.2-15.6-35.2-34.4
		C2710.3,505.7,2725.9,490.1,2745.4,490.1z M2745.4,796.1c-16.8,0-30.9-13.7-30.9-30.1V609.3c0-16.8,14.1-30.5,30.9-30.5
		c16.4,0,30.1,13.7,30.1,30.5v156.3C2775.5,782.4,2761.9,796.1,2745.4,796.1z"/>
	<path fill="#FFFFFF" d="M2961.1,579.2c16.8,0,30.1,14.1,30.1,30.9v157.1c0,73.1-38.7,113.3-109.4,113.3
		c-48.8,0-90.6-20.7-90.6-44.5c0-13.3,12.5-26.2,26.2-26.2c4.3,0,7.8,1.2,12.1,2.7c1.2,0.8,5.5,2.3,12.5,5.9
		c14.5,6.3,28.9,9.8,42.2,9.8c16,0,31.3-6.6,39.1-17.2c6.3-9,8.6-17.2,8.6-35.9v-3.5c-18.8,20.7-28.9,25.4-52,25.4
		c-54.7,0-94.2-45.7-94.2-108.2c0-63.3,40.6-111,95.3-111c21.9,0,32.8,5.1,52.7,24.6C2944.3,587.8,2954.5,579.2,2961.1,579.2z
		 M2845.9,688.2c0,31.6,18,53.9,43.8,53.9c25,0,42.6-21.9,42.6-53.9c0-32.8-16.8-54.3-43.4-54.3
		C2863.8,633.9,2845.9,655.8,2845.9,688.2z"/>
</g>
<g>
	<path fill="#FFFFFF" d="M2043.5,448.4V345.6c0-1.9,0.6-3.5,1.9-4.8c1.3-1.3,3-1.9,5-1.9h30.1c14.8,0,26.9,5.4,36.1,16.1
		c9.2,10.7,13.9,24.7,13.9,41.7c0,17.7-4.6,31.9-13.7,42.5c-9.1,10.6-21.4,15.9-36.8,15.9h-29C2046,455.1,2043.5,452.9,2043.5,448.4
		z M2057.4,442.7h21.9c11.1,0,20-4.1,26.5-12.5c6.5-8.3,9.8-19.5,9.8-33.6c0-13.5-3.3-24.4-9.9-32.7c-6.6-8.4-15.2-12.5-26-12.5
		h-22.3V442.7z"/>
	<path fill="#FFFFFF" d="M2154.2,339.9c2.4,0,4.4,0.9,6,2.6c1.6,1.7,2.4,3.9,2.4,6.4c0,2.4-0.8,4.4-2.5,6c-1.7,1.7-3.7,2.5-6,2.5
		c-2.5,0-4.6-0.8-6.3-2.4c-1.7-1.6-2.6-3.7-2.6-6.1c0-2.6,0.9-4.7,2.6-6.4C2149.5,340.8,2151.7,339.9,2154.2,339.9z M2153.9,456.6
		c-1.9,0-3.5-0.6-4.8-1.9c-1.3-1.3-1.9-3-1.9-5v-75.3c0-1.8,0.7-3.4,2-4.8c1.3-1.3,3-2,4.9-2c1.8,0,3.4,0.6,4.7,1.9
		c1.3,1.3,1.9,2.9,1.9,4.8v75.3c0,1.8-0.6,3.4-1.9,4.8C2157.5,455.9,2155.9,456.6,2153.9,456.6z"/>
	<path fill="#FFFFFF" d="M2238.4,374c0-1.6,0.7-3,2.1-4.3c1.4-1.3,3.1-1.9,5.1-1.9c1.9,0,3.4,0.7,4.7,2c1.3,1.3,1.9,2.9,1.9,4.7
		v75.3c0,1.9-0.6,3.5-1.9,4.8c-1.3,1.3-2.8,1.9-4.7,1.9c-2,0-3.8-0.6-5.2-1.9c-1.4-1.3-2.1-2.9-2.1-4.8v-6.7
		c-4,5.3-7.6,8.8-10.8,10.6c-3.2,1.8-7.7,2.7-13.4,2.7c-10.7,0-19.6-4.2-26.6-12.5c-7-8.3-10.5-18.9-10.5-31.8
		c0-12.8,3.5-23.4,10.4-31.9c6.9-8.5,15.8-12.7,26.5-12.7c5.3,0,9.6,0.7,12.7,2.2c3.2,1.5,7,4.6,11.6,9.2V374z M2191.3,412.2
		c0,10,2.1,17.9,6.4,23.8c4.3,5.9,10.2,8.8,17.6,8.8c15.8,0,23.7-11.1,23.7-33.3c0-5.8-0.4-10.5-1.3-14c-0.9-3.5-2.9-7.4-6.2-11.7
		c-3.3-4.2-8.5-6.4-15.6-6.4c-7.4,0-13.4,3-17.9,8.9C2193.6,394.4,2191.3,402.3,2191.3,412.2z"/>
	<path fill="#FFFFFF" d="M2376.8,336.5c0-1.9,0.7-3.5,2.1-4.8c1.4-1.3,3.1-1.9,5.2-1.9c1.8,0,3.4,0.6,4.7,1.9
		c1.3,1.3,1.9,2.9,1.9,4.8v113.1c0,1.9-0.7,3.6-2,4.9c-1.3,1.3-2.9,2-4.8,2c-1.9,0-3.6-0.7-5-2.1c-1.4-1.4-2.1-3.1-2.1-5v-6.8
		c-4.3,5.4-8.2,9-11.6,11c-3.4,1.9-7.9,2.9-13.4,2.9c-10.3,0-19-4.2-25.9-12.7c-7-8.5-10.5-19-10.5-31.6c0-12.9,3.5-23.5,10.6-31.9
		s16.1-12.6,27.1-12.6c5.2,0,9.3,0.9,12.5,2.6c3.2,1.7,6.9,5.2,11.2,10.3V336.5z M2329.6,412.8c0,9.3,2.2,16.7,6.5,22.4
		s9.9,8.5,16.7,8.5c4,0,7.7-1,11.2-2.9c3.5-1.9,6.2-4.3,8.1-7.2c1.9-2.9,3.1-5.8,3.8-8.7c0.6-3,1-6.6,1-10.9c0-5.5-0.4-10.1-1-13.7
		c-0.7-3.7-1.9-6.9-3.7-9.9c-1.8-2.9-4.3-5.3-7.7-7.3c-3.3-1.9-6.9-2.9-10.6-2.9c-7.1,0-12.9,3-17.4,8.9c-4.5,5.9-6.8,13.5-6.8,22.6
		V412.8z"/>
	<path fill="#FFFFFF" d="M2445.1,367.8c10.8,0,19.9,4.2,27.1,12.7c7.2,8.5,10.8,19.1,10.8,31.9c0,12.7-3.6,23.2-10.9,31.8
		c-7.3,8.5-16.3,12.8-27,12.8c-11,0-20.1-4.3-27.3-12.8c-7.3-8.5-10.9-19.2-10.9-31.9c0-12.7,3.6-23.2,10.8-31.7
		C2424.9,372,2434.1,367.8,2445.1,367.8z M2421.3,412.2c0,9.6,2.2,17.4,6.6,23.4c4.4,6,10.2,9,17.2,9c7,0,12.6-2.9,16.9-8.8
		c4.3-5.9,6.4-13.7,6.4-23.4c0-9.6-2.2-17.4-6.5-23.3c-4.4-5.9-10.1-8.9-17.2-8.9c-7,0-12.7,3-17,8.9
		C2423.4,395,2421.3,402.7,2421.3,412.2z"/>
</g>
<g>
	<path fill="#212121" d="M343.8,498.9c48.5,0,84.4,19.1,84.4,44.9c0,16-12.1,28.9-26.2,28.9c-5.9,0-8.6-0.8-24.2-6.6
		c-13.3-5.5-24.6-7.8-36.3-7.8c-42.6,0-71.9,34.8-71.9,86c0,51.2,28.9,85.2,71.9,85.2c12.9,0,25.4-2.7,39.1-8.6
		c5.9-2.7,9.4-4.3,10.9-4.7c3.5-2,8.6-2.7,12.5-2.7c15.2,0,27,12.9,27,29.3c0,26.2-39.5,47.3-88.7,47.3
		c-81.3,0-138.7-60.6-138.7-145.4C203.5,559.4,261.8,498.9,343.8,498.9z"/>
	<path fill="#212121" d="M539.7,570.8c58.6,0,103.5,48.1,103.5,109.8c0,61.7-44.9,109.4-103.5,109.4
		c-58.6,0.4-103.2-47.7-103.2-110.2C436.5,618.4,481.5,570.8,539.7,570.8z M517.4,557.9c-15.2,0-27.4-9.4-27.4-21.1
		c0-11.7,6.3-22.3,15.6-26.2l51.2-20.3c2.3-0.8,4.7-1.2,6.6-1.2c14.8,0,27,9.8,27,21.5c0,12.1-5.9,22.3-14.8,25.8l-52,20.3
		C521.7,557.5,519.8,557.9,517.4,557.9z M490.3,680.6c0,32.8,18.4,56.3,43.4,56.3c25.4,0,43.4-23.1,43.4-55.9
		c0-32.4-18.4-55.5-43.4-55.5S490.3,648.5,490.3,680.6z"/>
	<path fill="#212121" d="M798.9,511.2c0-16.8,13.7-30.5,30.5-30.5c16.8,0,30.1,14.1,30.1,30.5v248.9c0,16.4-13.3,30.1-30.5,30.1
		c-7,0-17.6-9.4-27.7-25c-19.1,20.3-29.3,25-52.7,25c-53.1,0-94.9-48.5-94.9-109.4c0-61.3,41.8-108.6,96.1-108.6
		c19.9,0,30.1,4.3,49.2,20.3V511.2z M713.4,681.6c0,31.3,18.4,53.9,43,53.9c25.4,0,43.8-22.3,43.8-53.1c0-32.4-18-54.7-43.4-54.7
		C732.1,627.6,713.4,650.7,713.4,681.6z"/>
	<path fill="#212121" d="M907.2,484.2c18.4,0,34,16,34,35.2c0,19.1-14.8,34.4-34,34.4c-19.5,0-35.2-15.6-35.2-34.4
		C872,499.9,887.6,484.2,907.2,484.2z M907.2,790.2c-16.8,0-30.9-13.7-30.9-30.1V603.4c0-16.8,14.1-30.5,30.9-30.5
		c16.4,0,30.1,13.7,30.1,30.5v156.3C937.3,776.5,923.6,790.2,907.2,790.2z"/>
	<path fill="#212121" d="M1122.8,573.3c16.8,0,30.1,14.1,30.1,30.9v157.1c0,73.1-38.7,113.3-109.4,113.3
		c-48.8,0-90.6-20.7-90.6-44.5c0-13.3,12.5-26.2,26.2-26.2c4.3,0,7.8,1.2,12.1,2.7c1.2,0.8,5.5,2.3,12.5,5.9
		c14.5,6.3,28.9,9.8,42.2,9.8c16,0,31.3-6.6,39.1-17.2c6.3-9,8.6-17.2,8.6-35.9v-3.5c-18.8,20.7-28.9,25.4-52,25.4
		c-54.7,0-94.2-45.7-94.2-108.2c0-63.3,40.6-111,95.3-111c21.9,0,32.8,5.1,52.7,24.6C1106,581.9,1116.2,573.3,1122.8,573.3z
		 M1007.6,682.3c0,31.6,18,53.9,43.8,53.9c25,0,42.6-21.9,42.6-53.9c0-32.8-16.8-54.3-43.4-54.3
		C1025.6,628,1007.6,649.9,1007.6,682.3z"/>
</g>
</svg>
